<svg id="svg" version="1.1" xmlns="http://www.w3.org/2000/svg" xmlns:xlink="http://www.w3.org/1999/xlink" width="400" height="430.70452155625657" viewBox="0, 0, 400,430.70452155625657"><g id="svgg"><path id="path0" d="M0.099 218.356 C 0.155 273.380,0.290 318.373,0.400 318.339 C 0.510 318.306,1.945 319.116,3.590 320.139 C 5.234 321.163,6.731 322.000,6.916 322.000 C 7.102 322.000,7.842 322.449,8.562 322.998 C 9.282 323.547,9.990 323.877,10.135 323.731 C 10.281 323.586,10.400 323.677,10.400 323.933 C 10.400 324.190,10.670 324.400,11.000 324.400 C 11.330 324.400,11.967 324.767,12.415 325.215 C 12.863 325.663,13.403 325.922,13.615 325.791 C 13.827 325.660,14.000 325.722,14.000 325.928 C 14.000 326.134,14.555 326.533,15.234 326.814 C 15.913 327.095,16.678 327.522,16.934 327.763 C 17.190 328.003,18.749 328.906,20.397 329.768 C 22.045 330.631,23.616 331.559,23.888 331.831 C 24.160 332.103,24.926 332.566,25.591 332.860 C 26.256 333.154,26.800 333.542,26.800 333.721 C 26.800 333.901,26.978 333.937,27.195 333.803 C 27.412 333.669,27.979 333.922,28.455 334.366 C 28.932 334.809,29.455 335.090,29.619 334.988 C 29.782 334.887,30.027 335.092,30.161 335.444 C 30.301 335.808,30.663 335.985,31.003 335.854 C 31.332 335.728,31.600 335.799,31.600 336.013 C 31.600 336.226,31.870 336.400,32.200 336.400 C 32.530 336.400,32.800 336.558,32.800 336.751 C 32.800 337.111,35.197 338.254,35.652 338.111 C 35.791 338.067,36.224 338.385,36.614 338.816 C 37.005 339.247,37.480 339.600,37.672 339.600 C 37.863 339.600,38.939 340.233,40.063 341.006 C 41.187 341.779,42.533 342.518,43.053 342.649 C 43.574 342.780,44.000 343.077,44.000 343.310 C 44.000 343.543,44.120 343.613,44.268 343.466 C 44.415 343.319,44.820 343.443,45.168 343.743 C 45.746 344.242,48.873 346.033,51.771 347.526 C 52.415 347.858,53.225 348.372,53.571 348.668 C 53.917 348.964,54.290 349.168,54.400 349.120 C 54.510 349.073,55.680 349.755,57.000 350.635 C 58.320 351.516,60.165 352.570,61.100 352.979 C 62.035 353.387,62.800 353.835,62.800 353.973 C 62.800 354.111,63.695 354.571,64.789 354.996 C 65.884 355.420,66.872 356.012,66.987 356.309 C 67.101 356.607,67.376 356.739,67.597 356.602 C 67.819 356.465,68.000 356.543,68.000 356.776 C 68.000 357.009,68.174 357.200,68.386 357.200 C 68.598 357.200,69.541 357.724,70.480 358.365 C 71.420 359.006,72.327 359.445,72.495 359.342 C 72.663 359.238,72.800 359.331,72.800 359.549 C 72.800 359.768,73.205 360.070,73.700 360.220 C 74.195 360.371,74.904 360.761,75.275 361.086 C 75.646 361.412,76.141 361.560,76.375 361.416 C 76.609 361.271,76.800 361.309,76.800 361.500 C 76.800 361.844,82.843 365.600,83.397 365.600 C 83.555 365.600,84.210 366.042,84.853 366.583 C 85.562 367.180,86.279 367.468,86.676 367.315 C 87.112 367.148,87.235 367.220,87.045 367.527 C 86.870 367.811,86.960 367.913,87.279 367.791 C 87.701 367.629,87.800 361.857,87.800 337.572 L 87.800 307.553 84.856 305.977 C 83.236 305.110,81.661 304.400,81.356 304.400 C 81.050 304.400,80.800 304.238,80.800 304.040 C 80.800 303.514,78.006 301.949,77.559 302.225 C 77.351 302.354,77.230 302.229,77.290 301.948 C 77.351 301.667,77.220 301.424,77.000 301.409 C 76.302 301.360,69.970 297.993,67.903 296.571 C 66.811 295.819,65.755 295.304,65.558 295.426 C 65.361 295.548,65.200 295.490,65.200 295.298 C 65.200 294.890,62.631 293.600,61.820 293.600 C 61.516 293.600,61.201 293.402,61.120 293.160 C 61.040 292.919,60.388 292.474,59.671 292.173 L 58.369 291.626 58.396 293.113 C 58.411 293.931,58.315 298.110,58.183 302.400 C 58.051 306.690,57.948 310.558,57.954 310.995 C 57.962 311.632,57.893 311.674,57.603 311.205 C 57.230 310.601,56.362 310.106,50.969 307.424 C 49.226 306.557,47.589 305.639,47.331 305.384 C 47.074 305.129,45.634 304.308,44.131 303.560 C 42.629 302.812,41.268 302.020,41.106 301.800 C 40.944 301.580,40.809 301.542,40.806 301.716 C 40.803 301.889,40.575 301.833,40.300 301.591 C 40.025 301.349,38.450 300.480,36.800 299.660 L 33.800 298.170 33.800 283.885 C 33.800 276.028,33.665 269.600,33.500 269.600 C 33.335 269.600,33.200 265.550,33.200 260.600 C 33.200 255.022,33.348 251.600,33.590 251.600 C 33.839 251.600,33.985 241.070,33.995 222.354 C 34.003 206.268,34.108 192.948,34.229 192.754 C 34.349 192.559,34.257 192.400,34.024 192.400 C 33.746 192.400,33.600 190.475,33.600 186.800 C 33.600 180.684,33.734 180.389,35.687 182.200 C 36.280 182.750,36.880 183.200,37.021 183.200 C 37.161 183.200,37.798 183.571,38.436 184.025 C 39.073 184.479,39.765 184.745,39.973 184.617 C 40.181 184.488,40.497 184.631,40.675 184.933 C 41.040 185.551,42.840 186.615,43.300 186.485 C 43.465 186.438,43.600 186.580,43.600 186.800 C 43.600 187.020,43.848 187.200,44.151 187.200 C 44.454 187.200,44.930 187.474,45.208 187.810 C 45.486 188.145,45.809 188.325,45.925 188.209 C 46.040 188.093,46.465 188.297,46.868 188.661 C 47.270 189.026,47.600 189.199,47.600 189.046 C 47.600 188.893,48.093 189.225,48.696 189.784 C 49.298 190.343,50.333 191.064,50.996 191.386 C 51.658 191.709,53.010 192.518,54.000 193.185 C 54.990 193.851,56.115 194.397,56.500 194.398 C 56.885 194.399,57.200 194.580,57.200 194.800 C 57.200 195.020,57.393 195.200,57.629 195.200 C 58.883 195.200,59.025 196.243,59.012 205.400 C 59.001 213.921,59.052 214.596,59.700 214.544 C 60.085 214.514,60.400 214.627,60.400 214.796 C 60.400 214.965,60.940 215.327,61.600 215.600 C 62.260 215.873,62.800 216.255,62.800 216.449 C 62.800 216.642,63.070 216.800,63.400 216.800 C 63.730 216.800,64.000 216.991,64.000 217.224 C 64.000 217.457,64.180 217.536,64.400 217.400 C 64.620 217.264,64.800 217.322,64.800 217.528 C 64.800 217.734,65.385 218.138,66.100 218.424 C 66.815 218.711,67.826 219.271,68.347 219.668 C 68.868 220.064,69.453 220.291,69.647 220.171 C 69.841 220.051,70.000 220.123,70.000 220.332 C 70.000 220.541,71.350 221.352,73.000 222.136 C 74.650 222.919,76.000 223.760,76.000 224.004 C 76.000 224.248,76.165 224.345,76.366 224.221 C 76.567 224.097,76.792 224.163,76.866 224.368 C 76.940 224.572,77.270 224.798,77.600 224.870 C 77.930 224.941,78.290 225.108,78.400 225.239 C 78.871 225.803,82.430 227.569,82.167 227.108 C 82.007 226.829,82.399 227.075,83.038 227.655 C 83.677 228.235,84.650 228.845,85.200 229.009 C 85.750 229.173,86.303 229.468,86.429 229.663 C 86.556 229.859,87.048 230.094,87.524 230.185 L 88.390 230.352 88.395 198.620 L 88.400 166.887 86.777 166.237 C 85.884 165.880,84.777 165.237,84.316 164.808 C 83.856 164.379,83.326 164.122,83.139 164.237 C 82.953 164.353,82.800 164.260,82.800 164.031 C 82.800 163.802,82.350 163.502,81.800 163.364 C 81.250 163.226,80.800 162.934,80.800 162.714 C 80.800 162.494,80.535 162.416,80.211 162.541 C 79.886 162.665,79.481 162.528,79.311 162.235 C 78.877 161.493,75.767 159.973,75.385 160.317 C 75.213 160.473,75.183 160.404,75.319 160.165 C 75.464 159.911,74.536 159.247,73.083 158.565 C 71.717 157.924,70.362 157.175,70.071 156.900 C 69.781 156.625,69.384 156.400,69.189 156.400 C 68.995 156.400,68.176 155.953,67.370 155.406 C 66.564 154.859,65.719 154.527,65.491 154.668 C 65.263 154.808,65.179 154.757,65.305 154.554 C 65.431 154.351,64.153 153.468,62.467 152.592 C 60.780 151.716,59.302 150.869,59.183 150.710 C 59.063 150.550,58.523 150.370,57.983 150.310 C 57.442 150.249,56.490 149.704,55.866 149.097 C 55.243 148.491,54.588 148.084,54.412 148.193 C 54.235 148.302,53.868 148.123,53.596 147.796 C 53.324 147.468,52.931 147.200,52.722 147.200 C 52.514 147.200,52.060 146.917,51.713 146.570 C 51.202 146.059,51.021 146.041,50.748 146.470 C 50.487 146.883,50.411 146.857,50.406 146.355 C 50.402 145.970,49.391 145.191,47.900 144.425 C 43.037 141.927,40.582 140.566,39.052 139.520 C 38.177 138.921,37.222 138.563,36.852 138.695 C 36.494 138.823,36.335 138.779,36.499 138.598 C 36.912 138.143,32.892 135.901,32.287 136.249 C 32.019 136.402,31.930 136.384,32.089 136.208 C 32.384 135.882,30.729 134.844,26.800 132.893 C 25.590 132.292,24.540 131.664,24.466 131.498 C 24.392 131.331,24.167 131.297,23.966 131.421 C 23.765 131.545,23.600 131.474,23.600 131.263 C 23.600 130.720,20.913 129.200,19.954 129.200 C 19.513 129.200,19.251 129.040,19.372 128.845 C 19.574 128.518,18.185 127.858,17.500 127.957 C 17.335 127.981,17.200 127.832,17.200 127.627 C 17.200 127.247,15.646 126.577,15.100 126.721 C 14.935 126.764,14.800 126.620,14.800 126.400 C 14.800 126.180,14.530 126.000,14.200 126.000 C 13.870 126.000,13.600 125.852,13.600 125.671 C 13.600 125.490,12.745 124.919,11.700 124.403 C 10.655 123.887,9.668 123.270,9.506 123.032 C 9.344 122.794,9.209 122.733,9.206 122.896 C 9.203 123.059,8.834 122.879,8.387 122.496 C 7.940 122.113,7.535 121.871,7.487 121.957 C 7.439 122.043,6.189 121.373,4.709 120.467 C 3.229 119.561,1.564 118.706,1.008 118.566 L -0.002 118.313 0.099 218.356 M399.697 120.300 C 399.644 120.575,399.403 120.800,399.163 120.800 C 398.923 120.800,398.272 121.158,397.716 121.595 C 397.161 122.032,396.559 122.299,396.380 122.188 C 396.201 122.077,395.817 122.325,395.527 122.740 C 395.237 123.154,394.864 123.515,394.698 123.542 C 394.328 123.602,389.708 125.975,388.600 126.674 C 388.160 126.952,387.231 127.449,386.537 127.779 C 385.842 128.110,385.212 128.520,385.137 128.690 C 385.061 128.861,384.190 129.404,383.200 129.898 C 382.210 130.392,380.257 131.517,378.860 132.398 C 377.463 133.279,376.147 134.000,375.936 134.000 C 375.725 134.000,375.663 134.178,375.797 134.395 C 375.932 134.613,375.807 134.703,375.521 134.595 C 375.234 134.487,374.010 135.028,372.800 135.796 C 371.590 136.564,370.105 137.392,369.500 137.636 C 368.895 137.879,368.400 138.251,368.400 138.463 C 368.400 138.674,368.219 138.735,367.997 138.598 C 367.776 138.461,367.487 138.630,367.355 138.972 C 367.224 139.315,366.974 139.507,366.800 139.400 C 366.626 139.293,366.381 139.474,366.254 139.802 C 366.128 140.131,365.659 140.400,365.213 140.400 C 364.766 140.400,364.400 140.577,364.400 140.792 C 364.400 141.008,363.950 141.298,363.400 141.436 C 362.850 141.574,362.400 141.877,362.400 142.110 C 362.400 142.343,362.293 142.426,362.162 142.296 C 361.911 142.044,358.639 143.723,357.568 144.653 C 357.220 144.955,356.815 145.081,356.668 144.934 C 356.520 144.787,356.400 144.877,356.400 145.133 C 356.400 145.390,356.157 145.600,355.860 145.600 C 355.563 145.600,354.528 146.178,353.560 146.885 C 352.592 147.591,351.581 148.204,351.314 148.247 C 351.047 148.290,350.327 148.673,349.714 149.097 C 349.101 149.522,348.285 149.983,347.900 150.122 C 347.515 150.261,347.200 150.571,347.200 150.811 C 347.200 151.051,347.041 151.149,346.847 151.029 C 346.653 150.909,346.039 151.168,345.484 151.605 C 344.928 152.042,344.267 152.400,344.013 152.400 C 343.760 152.400,343.681 152.608,343.838 152.862 C 344.001 153.125,343.949 153.216,343.718 153.073 C 343.270 152.796,341.208 153.630,341.203 154.090 C 341.201 154.250,340.345 154.768,339.300 155.241 C 338.255 155.715,337.268 156.304,337.106 156.551 C 336.940 156.804,336.807 156.826,336.800 156.600 C 336.792 156.344,336.682 156.349,336.494 156.613 C 336.081 157.194,332.457 159.381,330.900 159.989 C 330.185 160.269,329.600 160.666,329.600 160.872 C 329.600 161.078,329.420 161.136,329.200 161.000 C 328.980 160.864,328.800 160.954,328.800 161.200 C 328.800 161.446,328.644 161.551,328.453 161.433 C 328.263 161.315,327.785 161.575,327.391 162.009 C 326.998 162.444,326.372 162.800,326.000 162.800 C 325.628 162.800,324.998 163.160,324.600 163.600 C 324.202 164.040,323.647 164.400,323.367 164.400 C 323.086 164.400,322.613 164.625,322.314 164.900 C 321.682 165.483,320.057 166.449,317.800 167.585 C 316.086 168.448,314.707 169.238,312.266 170.754 L 310.733 171.707 310.963 186.953 C 311.089 195.339,311.287 220.020,311.403 241.800 C 311.620 282.742,311.920 306.453,312.225 306.758 C 312.610 307.144,312.383 318.257,311.981 318.659 C 311.689 318.951,311.690 326.978,311.987 345.167 C 312.221 359.516,312.317 371.411,312.200 371.600 C 312.083 371.790,312.153 372.047,312.356 372.173 C 312.741 372.411,316.901 370.434,317.134 369.901 C 317.208 369.733,317.413 369.684,317.589 369.793 C 317.765 369.902,318.132 369.723,318.404 369.396 C 318.676 369.068,319.146 368.800,319.449 368.800 C 319.752 368.800,320.000 368.609,320.000 368.376 C 320.000 368.143,320.169 368.057,320.376 368.185 C 320.583 368.313,321.078 368.093,321.476 367.697 C 322.579 366.598,323.792 365.736,323.463 366.284 C 323.304 366.550,324.214 366.172,325.487 365.445 C 326.759 364.718,327.762 363.937,327.716 363.709 C 327.669 363.481,327.849 363.315,328.116 363.341 C 328.881 363.416,334.000 360.830,334.000 360.369 C 334.000 360.140,334.180 360.064,334.400 360.200 C 334.620 360.336,334.800 360.257,334.800 360.024 C 334.800 359.791,334.936 359.645,335.103 359.700 C 335.536 359.843,341.600 356.323,341.600 355.929 C 341.600 355.748,341.846 355.600,342.146 355.600 C 342.446 355.600,343.160 355.232,343.732 354.782 C 344.304 354.332,344.868 353.972,344.986 353.982 C 345.798 354.050,346.016 353.950,345.803 353.605 C 345.663 353.378,345.823 353.311,346.176 353.446 C 346.539 353.585,346.894 353.420,347.039 353.044 C 347.173 352.692,347.424 352.491,347.594 352.597 C 347.765 352.702,348.519 352.386,349.270 351.894 C 350.021 351.402,351.302 350.657,352.117 350.237 C 352.933 349.817,353.600 349.342,353.600 349.180 C 353.600 349.019,354.068 348.769,354.640 348.626 C 355.554 348.396,357.840 347.022,358.400 346.366 C 358.510 346.237,359.222 345.918,359.983 345.657 C 360.743 345.397,361.778 344.796,362.283 344.322 C 362.787 343.848,363.200 343.594,363.200 343.758 C 363.200 343.921,363.723 343.682,364.362 343.227 C 365.001 342.772,365.721 342.400,365.962 342.400 C 366.203 342.400,366.400 342.220,366.400 342.000 C 366.400 341.780,366.663 341.600,366.984 341.600 C 367.306 341.600,367.891 341.271,368.284 340.869 C 368.678 340.468,369.630 339.899,370.400 339.606 C 371.170 339.312,372.340 338.681,373.000 338.204 C 373.660 337.726,375.235 336.849,376.500 336.256 C 377.765 335.662,378.800 335.002,378.800 334.788 C 378.800 334.575,379.025 334.399,379.300 334.399 C 379.575 334.398,380.430 334.001,381.200 333.518 C 381.970 333.034,382.742 332.629,382.915 332.619 C 383.088 332.609,383.374 332.365,383.551 332.079 C 383.728 331.792,384.037 331.607,384.237 331.668 C 384.436 331.728,385.050 331.494,385.600 331.146 C 387.834 329.736,392.729 326.939,394.603 326.002 C 395.702 325.454,396.842 324.774,397.138 324.493 C 397.434 324.212,398.199 323.711,398.838 323.380 L 400.000 322.779 400.000 297.201 L 400.000 271.623 398.100 272.630 C 397.055 273.184,395.795 273.988,395.300 274.416 C 394.805 274.844,394.400 275.099,394.400 274.982 C 394.400 274.865,394.006 275.136,393.525 275.584 C 393.043 276.033,392.323 276.400,391.925 276.400 C 391.526 276.400,391.200 276.566,391.200 276.769 C 391.200 276.972,390.568 277.346,389.796 277.601 C 389.024 277.856,388.495 278.230,388.620 278.432 C 388.745 278.635,388.471 278.800,388.011 278.800 C 387.551 278.800,387.072 279.069,386.946 279.398 C 386.819 279.726,386.570 279.905,386.390 279.794 C 386.211 279.683,385.780 279.877,385.432 280.225 C 385.085 280.573,384.795 280.709,384.788 280.529 C 384.781 280.348,384.592 280.515,384.368 280.900 C 384.144 281.285,383.770 281.600,383.538 281.600 C 383.306 281.600,382.316 282.140,381.338 282.800 C 380.360 283.460,379.389 284.000,379.180 284.000 C 378.971 284.000,378.800 284.191,378.800 284.424 C 378.800 284.657,378.631 284.743,378.424 284.615 C 378.217 284.487,377.722 284.715,377.324 285.121 C 376.926 285.528,375.745 286.253,374.700 286.732 C 373.655 287.212,372.800 287.704,372.800 287.826 C 372.800 287.948,373.008 287.919,373.262 287.762 C 373.550 287.584,373.615 287.652,373.434 287.945 C 373.275 288.202,372.999 288.323,372.820 288.212 C 372.641 288.102,371.822 288.546,371.000 289.200 C 370.178 289.854,369.346 290.290,369.152 290.171 C 368.959 290.051,368.800 290.131,368.800 290.349 C 368.800 290.568,368.395 290.870,367.900 291.021 C 367.405 291.172,365.955 292.002,364.677 292.866 C 363.400 293.730,361.915 294.604,361.377 294.809 C 360.840 295.013,360.400 295.375,360.400 295.614 C 360.400 295.852,360.242 295.950,360.049 295.830 C 359.856 295.711,359.091 296.050,358.349 296.584 C 357.607 297.117,356.145 298.007,355.100 298.560 L 353.200 299.567 353.200 285.244 L 353.200 270.920 355.660 269.460 C 357.013 268.657,358.283 268.000,358.484 268.000 C 358.684 268.000,358.736 267.820,358.600 267.600 C 358.464 267.380,358.606 267.200,358.915 267.200 C 359.929 267.200,362.016 265.950,361.742 265.507 C 361.596 265.270,361.652 265.185,361.866 265.317 C 362.081 265.450,362.874 265.169,363.628 264.694 C 365.917 263.251,366.542 262.888,368.000 262.150 C 368.770 261.760,369.490 261.342,369.600 261.221 C 369.710 261.099,370.655 260.597,371.700 260.105 C 372.745 259.613,373.600 259.028,373.600 258.805 C 373.600 258.582,373.735 258.419,373.900 258.443 C 374.504 258.530,376.000 257.897,376.000 257.553 C 376.000 257.359,376.281 257.200,376.624 257.200 C 376.998 257.200,377.132 257.013,376.958 256.732 C 376.764 256.417,376.887 256.348,377.334 256.519 C 377.700 256.660,378.000 256.613,378.000 256.414 C 378.000 256.216,378.359 255.940,378.798 255.801 C 379.236 255.662,379.828 255.334,380.111 255.074 C 380.395 254.813,381.656 254.066,382.914 253.414 C 384.171 252.762,385.200 252.087,385.200 251.914 C 385.200 251.741,385.365 251.645,385.567 251.700 C 386.048 251.831,389.200 249.907,389.200 249.482 C 389.200 249.301,389.380 249.264,389.600 249.400 C 389.820 249.536,390.000 249.446,390.000 249.200 C 390.000 248.954,390.165 248.855,390.366 248.979 C 390.567 249.103,390.792 249.051,390.866 248.862 C 391.025 248.454,394.142 246.584,395.700 245.961 C 396.305 245.720,396.800 245.349,396.800 245.137 C 396.800 244.926,396.980 244.864,397.200 245.000 C 397.420 245.136,397.600 245.046,397.600 244.800 C 397.600 244.554,397.769 244.457,397.975 244.585 C 398.182 244.712,398.536 244.498,398.763 244.108 C 398.990 243.719,399.184 243.580,399.194 243.800 C 399.204 244.020,399.387 243.930,399.600 243.600 C 399.837 243.234,399.990 235.407,399.994 223.524 C 400.000 203.670,399.901 202.353,398.539 204.215 C 398.243 204.621,398.000 204.794,398.000 204.600 C 398.000 204.406,397.717 204.596,397.370 205.024 C 397.024 205.451,396.853 205.577,396.991 205.305 C 397.156 204.978,397.029 204.891,396.621 205.047 C 396.279 205.178,396.000 205.433,396.000 205.613 C 396.000 205.794,395.505 206.194,394.900 206.503 C 391.900 208.033,386.117 211.362,385.481 211.923 C 385.085 212.273,384.473 212.601,384.121 212.653 C 383.768 212.704,383.372 212.894,383.240 213.073 C 383.108 213.253,382.190 213.831,381.200 214.358 C 380.210 214.885,379.028 215.650,378.574 216.058 C 378.120 216.466,377.434 216.800,377.051 216.800 C 376.667 216.800,376.464 216.980,376.600 217.200 C 376.736 217.420,376.557 217.600,376.202 217.600 C 375.848 217.600,374.895 218.050,374.086 218.600 C 373.277 219.150,372.386 219.600,372.107 219.600 C 371.828 219.600,371.600 219.780,371.600 220.000 C 371.600 220.220,371.343 220.400,371.029 220.400 C 370.714 220.400,370.219 220.638,369.929 220.929 C 369.638 221.219,369.279 221.444,369.132 221.429 C 368.985 221.413,368.442 221.760,367.927 222.200 C 367.411 222.640,365.867 223.528,364.495 224.174 C 363.123 224.819,362.000 225.474,362.000 225.630 C 362.000 225.786,361.304 226.192,360.453 226.532 C 359.602 226.873,358.609 227.449,358.245 227.812 C 357.881 228.176,357.363 228.513,357.092 228.561 C 356.821 228.609,355.970 229.042,355.200 229.523 C 354.430 230.004,353.665 230.398,353.500 230.399 C 353.083 230.401,353.133 200.325,353.551 199.666 C 353.737 199.372,353.998 199.192,354.132 199.266 C 354.265 199.340,354.742 199.085,355.192 198.700 C 355.641 198.315,356.179 198.000,356.387 198.000 C 356.842 198.000,359.690 196.102,360.009 195.586 C 360.133 195.385,360.589 195.166,361.021 195.100 C 361.454 195.034,362.251 194.670,362.793 194.290 C 363.335 193.911,363.896 193.600,364.041 193.600 C 364.632 193.600,368.755 190.888,368.520 190.654 C 368.381 190.514,368.465 190.400,368.707 190.400 C 369.319 190.400,370.776 189.734,372.200 188.804 C 372.860 188.373,374.422 187.480,375.671 186.819 C 376.920 186.158,378.057 185.431,378.199 185.202 C 378.340 184.974,378.624 184.891,378.830 185.019 C 379.037 185.146,379.313 184.970,379.445 184.628 C 379.576 184.285,379.845 184.104,380.042 184.226 C 380.239 184.348,380.400 184.246,380.400 184.000 C 380.400 183.754,380.580 183.664,380.800 183.800 C 381.020 183.936,381.200 183.857,381.200 183.624 C 381.200 183.391,381.393 183.200,381.628 183.200 C 381.863 183.200,382.808 182.685,383.728 182.055 C 384.648 181.425,386.195 180.480,387.167 179.955 C 388.138 179.430,389.758 178.512,390.767 177.917 C 391.775 177.321,392.915 176.715,393.300 176.570 C 393.685 176.425,394.000 176.148,394.000 175.953 C 394.000 175.759,394.135 175.636,394.300 175.679 C 394.846 175.823,396.400 175.153,396.400 174.773 C 396.400 174.568,396.625 174.395,396.900 174.389 C 397.175 174.383,397.988 173.888,398.706 173.289 L 400.011 172.200 399.903 146.000 C 399.843 131.590,399.750 120.025,399.697 120.300 M97.804 173.193 C 97.671 173.409,97.585 174.624,97.614 175.893 C 97.642 177.162,97.559 188.280,97.429 200.600 C 97.298 212.920,97.089 235.510,96.964 250.800 C 96.840 266.090,96.660 282.629,96.565 287.554 C 96.439 294.067,96.521 296.663,96.864 297.077 C 97.235 297.525,97.215 297.619,96.768 297.523 C 96.455 297.455,96.243 297.619,96.296 297.887 C 96.510 298.980,96.436 310.280,96.167 317.300 C 95.950 322.973,95.996 324.800,96.354 324.800 C 96.689 324.800,96.713 325.014,96.438 325.529 C 96.200 325.974,96.034 334.799,96.011 348.229 C 95.991 360.313,95.885 370.748,95.776 371.417 C 95.567 372.705,96.712 373.937,98.708 374.571 C 99.198 374.726,99.600 375.022,99.600 375.227 C 99.600 375.432,99.870 375.600,100.200 375.600 C 100.530 375.600,100.800 375.810,100.800 376.067 C 100.800 376.323,100.920 376.413,101.068 376.266 C 101.215 376.119,101.620 376.254,101.968 376.568 C 102.315 376.881,102.866 377.196,103.190 377.268 C 103.515 377.341,104.032 377.634,104.339 377.920 C 104.645 378.205,105.421 378.544,106.062 378.672 C 106.703 378.801,107.134 378.999,107.020 379.113 C 106.826 379.307,107.371 379.656,110.058 381.063 C 110.640 381.367,111.337 381.883,111.607 382.208 C 111.877 382.534,112.236 382.800,112.405 382.800 C 112.573 382.800,113.931 383.513,115.421 384.383 C 116.911 385.254,118.309 385.856,118.527 385.722 C 118.745 385.587,118.808 385.663,118.667 385.892 C 118.526 386.120,118.993 386.542,119.705 386.828 C 120.417 387.115,122.099 388.036,123.443 388.875 C 124.787 389.714,126.139 390.400,126.447 390.400 C 126.755 390.400,127.242 390.775,127.528 391.233 C 127.823 391.706,128.298 391.971,128.624 391.846 C 128.941 391.725,129.200 391.761,129.200 391.928 C 129.200 392.291,133.311 394.828,134.084 394.942 C 134.382 394.986,135.188 395.422,135.875 395.911 C 136.561 396.400,137.321 396.800,137.562 396.800 C 137.803 396.800,138.000 396.991,138.000 397.224 C 138.000 397.457,138.156 397.551,138.347 397.433 C 138.537 397.315,139.004 397.562,139.384 397.982 C 139.780 398.420,140.343 398.643,140.703 398.505 C 141.088 398.357,141.230 398.428,141.069 398.688 C 140.924 398.923,141.387 399.401,142.104 399.759 C 142.817 400.115,144.840 401.225,146.600 402.227 C 148.360 403.228,150.115 404.148,150.500 404.271 C 150.885 404.393,151.200 404.663,151.200 404.870 C 151.200 405.078,151.360 405.149,151.555 405.028 C 151.750 404.907,152.132 405.077,152.404 405.404 C 152.676 405.732,153.057 406.000,153.252 406.000 C 153.447 406.000,154.360 406.546,155.281 407.213 C 156.202 407.880,157.159 408.348,157.407 408.253 C 157.655 408.158,158.082 408.439,158.356 408.879 C 158.631 409.318,158.958 409.576,159.083 409.451 C 159.207 409.326,159.802 409.574,160.403 410.002 C 161.004 410.430,161.924 410.966,162.448 411.194 C 162.971 411.422,164.120 412.065,165.000 412.624 C 165.880 413.182,167.270 413.925,168.089 414.276 C 168.908 414.626,169.505 415.030,169.417 415.173 C 169.328 415.317,169.626 415.462,170.080 415.496 C 170.533 415.530,171.330 415.959,171.852 416.449 C 172.373 416.939,172.806 417.173,172.813 416.970 C 172.820 416.766,173.075 416.929,173.379 417.330 C 173.684 417.732,174.232 418.105,174.598 418.159 C 174.964 418.212,175.385 418.440,175.532 418.665 C 175.679 418.889,177.330 419.858,179.200 420.817 C 181.070 421.777,182.744 422.795,182.920 423.081 C 183.096 423.366,183.569 423.600,183.971 423.600 C 184.373 423.600,184.926 423.870,185.200 424.200 C 185.474 424.530,185.946 424.800,186.249 424.800 C 186.552 424.800,186.800 424.991,186.800 425.224 C 186.800 425.457,186.980 425.536,187.200 425.400 C 187.420 425.264,187.600 425.354,187.600 425.600 C 187.600 425.846,187.780 425.936,188.000 425.800 C 188.220 425.664,188.400 425.739,188.400 425.967 C 188.400 426.195,189.075 426.717,189.900 427.127 C 190.725 427.537,192.441 428.454,193.714 429.165 C 194.987 429.876,196.227 430.391,196.471 430.310 C 196.925 430.158,197.018 413.877,196.569 413.150 C 196.450 412.957,196.498 412.799,196.676 412.798 C 196.854 412.797,197.047 407.647,197.104 401.353 C 197.162 395.059,197.317 389.734,197.450 389.519 C 197.582 389.305,197.625 382.080,197.545 373.465 C 197.417 359.682,197.686 326.433,198.133 300.800 C 198.234 295.026,198.193 293.712,198.010 296.800 L 197.737 301.400 197.899 296.200 C 197.989 293.340,198.096 276.937,198.138 259.750 L 198.214 228.500 196.407 227.571 C 195.413 227.060,194.106 226.306,193.503 225.896 C 192.899 225.485,192.196 225.279,191.941 225.437 C 191.631 225.628,191.585 225.547,191.804 225.194 C 192.044 224.806,191.947 224.735,191.445 224.927 C 191.067 225.072,190.860 225.027,190.984 224.826 C 191.108 224.626,190.487 224.143,189.604 223.754 C 188.722 223.365,188.000 222.871,188.000 222.656 C 188.000 222.442,187.882 222.385,187.737 222.530 C 187.592 222.675,187.197 222.570,186.860 222.297 C 186.353 221.886,186.300 221.904,186.558 222.400 C 186.729 222.730,186.531 222.586,186.118 222.080 C 185.658 221.517,185.123 221.255,184.736 221.403 C 184.308 221.567,184.032 221.364,183.876 220.771 C 183.723 220.183,183.443 219.974,183.024 220.135 C 182.681 220.267,182.400 220.238,182.400 220.072 C 182.400 219.706,176.727 216.578,176.300 216.708 C 176.135 216.759,176.000 216.632,176.000 216.427 C 176.000 216.047,174.446 215.377,173.900 215.521 C 173.735 215.564,173.600 215.309,173.600 214.953 C 173.600 214.486,173.333 214.358,172.637 214.491 C 172.014 214.610,171.736 214.511,171.851 214.212 C 172.028 213.750,168.153 211.703,167.491 211.910 C 167.298 211.970,167.255 211.835,167.394 211.610 C 167.533 211.384,167.457 211.200,167.224 211.200 C 166.330 211.200,166.174 211.128,165.300 210.306 C 164.805 209.841,164.400 209.610,164.400 209.792 C 164.400 209.975,164.039 209.797,163.598 209.398 C 162.390 208.305,162.254 208.778,162.191 214.309 C 162.158 217.109,162.011 226.690,161.863 235.600 C 161.715 244.510,161.571 253.353,161.543 255.251 C 161.515 257.149,161.614 258.898,161.762 259.139 C 162.100 259.685,161.993 266.842,161.651 266.634 C 161.513 266.551,161.361 269.929,161.314 274.141 C 161.267 278.354,161.087 294.040,160.914 309.000 C 160.741 323.960,160.618 343.429,160.640 352.264 C 160.683 369.420,160.715 369.145,158.868 367.319 C 158.575 367.029,158.190 366.882,158.013 366.992 C 157.836 367.102,157.468 366.923,157.196 366.596 C 156.924 366.268,156.379 366.000,155.984 366.000 C 155.590 366.000,155.204 365.812,155.127 365.582 C 155.051 365.352,154.594 365.135,154.111 365.098 C 153.629 365.062,153.314 364.953,153.411 364.856 C 153.697 364.569,151.551 363.583,151.163 363.823 C 150.968 363.943,150.907 363.786,151.027 363.473 C 151.165 363.113,150.907 362.817,150.323 362.664 C 149.090 362.341,149.079 362.336,148.468 361.725 C 148.175 361.432,147.797 361.278,147.628 361.382 C 147.459 361.487,146.979 361.255,146.561 360.868 C 146.142 360.480,144.180 359.364,142.200 358.388 C 140.220 357.412,138.361 356.384,138.069 356.104 C 137.048 355.125,136.078 354.773,135.864 355.303 C 135.743 355.602,135.651 355.526,135.632 355.114 C 135.614 354.737,135.218 354.224,134.752 353.974 C 134.065 353.606,133.965 353.623,134.229 354.060 C 134.493 354.499,134.438 354.507,133.940 354.103 C 133.603 353.830,133.208 353.695,133.063 353.803 C 132.918 353.912,132.888 353.882,132.997 353.737 C 133.105 353.592,133.003 353.244,132.770 352.964 C 132.298 352.395,132.258 347.995,132.558 329.600 C 132.667 322.890,132.811 306.843,132.878 293.940 C 132.945 281.037,133.130 270.560,133.289 270.657 C 133.447 270.754,133.598 263.131,133.624 253.717 C 133.707 223.392,133.947 199.920,134.176 199.690 C 134.471 199.396,134.455 194.445,134.156 193.331 C 133.922 192.458,131.706 191.087,131.116 191.452 C 130.942 191.559,130.800 191.470,130.800 191.253 C 130.800 191.035,130.080 190.540,129.200 190.152 C 128.320 189.764,127.600 189.321,127.600 189.169 C 127.600 189.017,127.128 188.583,126.551 188.205 C 125.974 187.826,125.623 187.714,125.772 187.954 C 125.940 188.227,125.809 188.302,125.421 188.153 C 125.079 188.022,124.800 187.754,124.800 187.557 C 124.800 187.361,124.601 187.200,124.358 187.200 C 124.115 187.200,123.116 186.660,122.138 186.000 C 121.160 185.340,120.158 184.800,119.911 184.800 C 119.665 184.800,119.179 184.552,118.831 184.250 C 118.484 183.947,116.949 183.042,115.420 182.239 C 113.891 181.436,112.346 180.513,111.987 180.189 C 111.629 179.864,111.215 179.719,111.068 179.866 C 110.920 180.013,110.800 179.935,110.800 179.694 C 110.800 179.263,109.292 178.564,108.700 178.721 C 108.535 178.764,108.400 178.620,108.400 178.400 C 108.400 178.180,108.130 178.000,107.800 178.000 C 107.470 178.000,107.200 177.790,107.200 177.533 C 107.200 177.277,107.079 177.187,106.932 177.335 C 106.784 177.482,106.244 177.328,105.732 176.992 C 105.219 176.656,104.800 176.516,104.800 176.680 C 104.800 176.844,104.545 176.613,104.232 176.168 C 103.920 175.722,102.660 174.933,101.432 174.414 C 100.205 173.895,99.200 173.319,99.200 173.135 C 99.200 172.669,98.100 172.714,97.804 173.193 M298.100 178.700 C 297.385 179.055,296.800 179.492,296.800 179.673 C 296.800 179.853,296.545 180.000,296.233 180.000 C 295.922 180.000,295.607 180.155,295.533 180.344 C 295.416 180.647,291.402 182.961,288.903 184.167 C 288.410 184.405,288.005 184.746,288.003 184.924 C 288.001 185.102,287.844 185.151,287.653 185.033 C 287.463 184.915,286.985 185.175,286.591 185.609 C 286.198 186.044,285.544 186.400,285.138 186.400 C 284.732 186.400,284.400 186.610,284.400 186.867 C 284.400 187.123,284.291 187.224,284.157 187.091 C 284.024 186.957,283.709 187.030,283.457 187.252 C 282.754 187.873,276.865 191.443,274.400 192.742 C 271.289 194.382,270.426 194.875,268.508 196.110 C 267.577 196.710,266.657 197.200,266.464 197.200 C 266.270 197.200,265.425 197.666,264.586 198.236 C 263.746 198.805,261.360 200.176,259.282 201.283 C 257.205 202.390,255.160 203.640,254.738 204.062 C 254.316 204.484,253.793 204.719,253.575 204.585 C 253.358 204.450,253.230 204.579,253.290 204.870 C 253.351 205.164,253.089 205.375,252.700 205.344 C 252.315 205.314,252.000 205.449,252.000 205.644 C 252.000 205.840,251.865 205.963,251.700 205.918 C 251.390 205.833,249.894 206.637,247.800 208.013 C 247.140 208.447,246.046 209.061,245.368 209.378 C 244.691 209.695,243.904 210.234,243.619 210.577 C 243.335 210.920,242.777 211.200,242.380 211.200 C 241.982 211.200,241.411 211.446,241.110 211.747 C 240.809 212.048,240.160 212.422,239.668 212.578 C 239.177 212.734,238.329 213.308,237.784 213.853 C 237.239 214.397,236.615 214.733,236.397 214.598 C 236.178 214.463,236.000 214.543,236.000 214.776 C 236.000 215.009,235.807 215.200,235.572 215.200 C 235.337 215.200,234.347 215.749,233.372 216.419 C 232.397 217.090,231.600 217.535,231.600 217.409 C 231.600 217.044,229.394 218.284,228.826 218.969 C 228.542 219.311,228.177 219.509,228.015 219.409 C 227.853 219.309,227.341 219.581,226.877 220.014 C 226.413 220.446,225.750 220.800,225.404 220.800 C 225.058 220.800,224.671 221.070,224.545 221.400 C 224.418 221.730,223.996 222.000,223.606 222.000 C 223.217 222.000,222.687 222.254,222.429 222.566 C 222.170 222.877,221.203 223.508,220.280 223.968 C 218.445 224.882,217.112 225.671,216.800 226.029 C 216.509 226.363,214.906 227.022,214.075 227.150 C 213.897 227.178,213.357 227.567,212.875 228.016 C 212.394 228.464,212.000 228.727,212.000 228.600 C 212.000 228.473,211.775 228.579,211.500 228.836 C 211.102 229.207,211.021 249.828,211.102 329.878 L 211.203 430.453 212.102 430.193 C 212.596 430.050,213.488 429.588,214.084 429.166 C 214.680 428.745,215.355 428.400,215.584 428.400 C 215.813 428.400,216.000 428.209,216.000 427.976 C 216.000 427.743,216.180 427.664,216.400 427.800 C 216.620 427.936,216.800 427.846,216.800 427.600 C 216.800 427.354,216.968 427.256,217.172 427.383 C 217.377 427.509,217.665 427.419,217.811 427.182 C 217.958 426.945,218.465 426.579,218.939 426.369 C 219.412 426.160,220.340 425.637,221.000 425.208 C 221.660 424.779,222.954 424.062,223.876 423.615 C 224.797 423.168,225.660 422.627,225.793 422.412 C 225.925 422.198,227.556 421.268,229.417 420.346 C 231.278 419.424,232.800 418.489,232.800 418.268 C 232.800 418.047,232.908 417.974,233.039 418.106 C 233.170 418.237,234.135 417.817,235.183 417.172 C 236.231 416.528,237.285 416.000,237.524 416.000 C 237.764 416.000,238.104 415.775,238.280 415.500 C 238.613 414.980,238.941 414.776,242.718 412.742 C 243.973 412.066,245.060 411.352,245.133 411.156 C 245.207 410.960,245.612 410.800,246.033 410.800 C 246.455 410.800,246.800 410.620,246.800 410.400 C 246.800 410.180,246.970 410.000,247.177 410.000 C 248.177 410.000,250.446 408.274,249.931 407.905 C 249.536 407.622,249.580 407.582,250.100 407.750 C 251.021 408.046,252.065 407.629,251.736 407.096 C 251.580 406.843,251.670 406.796,251.963 406.977 C 252.231 407.143,252.754 407.021,253.125 406.705 C 253.496 406.390,254.970 405.541,256.400 404.819 C 257.830 404.096,259.270 403.294,259.600 403.036 C 259.930 402.778,261.010 402.160,262.000 401.662 C 264.840 400.236,266.542 399.178,267.316 398.358 C 267.709 397.941,268.299 397.600,268.625 397.600 C 269.162 397.600,274.317 394.585,274.800 393.989 C 275.024 393.713,276.334 393.135,277.099 392.975 C 277.373 392.918,278.345 392.321,279.259 391.649 C 280.173 390.977,281.073 390.522,281.260 390.637 C 281.447 390.753,281.600 390.669,281.600 390.451 C 281.600 390.232,282.005 389.926,282.500 389.770 C 282.995 389.613,283.701 389.139,284.070 388.717 C 284.438 388.294,284.798 387.986,284.870 388.032 C 285.267 388.291,286.770 387.475,286.550 387.119 C 286.401 386.879,286.524 386.775,286.833 386.878 C 287.375 387.058,292.783 384.221,293.240 383.517 C 293.372 383.313,293.752 383.107,294.084 383.058 C 294.416 383.009,294.995 382.662,295.372 382.285 C 295.748 381.909,296.493 381.491,297.028 381.357 C 297.563 381.223,298.000 380.953,298.000 380.757 C 298.000 380.560,298.257 380.400,298.571 380.400 C 300.464 380.400,300.400 381.764,300.400 341.162 L 300.400 303.180 299.462 302.824 C 298.946 302.627,298.271 302.227,297.962 301.933 C 297.653 301.640,296.680 300.865,295.800 300.212 C 294.920 299.559,293.846 298.699,293.414 298.302 C 292.982 297.905,292.406 297.666,292.134 297.770 C 291.850 297.879,291.726 297.737,291.842 297.435 C 291.963 297.121,291.475 296.642,290.621 296.237 C 289.840 295.866,289.200 295.391,289.200 295.181 C 289.200 294.972,288.949 294.800,288.643 294.800 C 288.336 294.800,287.982 294.530,287.855 294.200 C 287.729 293.870,287.349 293.600,287.013 293.600 C 286.676 293.600,286.400 293.420,286.400 293.200 C 286.400 292.980,286.149 292.800,285.843 292.800 C 285.536 292.800,285.182 292.530,285.055 292.200 C 284.929 291.870,284.513 291.600,284.133 291.600 C 283.594 291.600,283.547 291.493,283.920 291.120 C 284.184 290.856,284.400 290.308,284.400 289.903 C 284.400 289.497,284.856 288.678,285.412 288.083 C 285.969 287.487,286.526 286.608,286.649 286.129 C 286.772 285.650,287.137 285.156,287.461 285.032 C 287.786 284.907,287.939 284.624,287.802 284.403 C 287.665 284.181,287.731 284.000,287.949 284.000 C 288.168 284.000,288.470 283.609,288.622 283.131 C 288.774 282.653,289.236 281.899,289.649 281.455 C 290.062 281.012,290.400 280.323,290.400 279.925 C 290.400 279.526,290.545 279.200,290.721 279.200 C 290.898 279.200,291.529 278.300,292.123 277.200 C 292.717 276.100,293.078 275.200,292.925 275.200 C 292.772 275.200,292.979 274.957,293.385 274.661 C 293.790 274.364,294.002 273.927,293.855 273.689 C 293.708 273.452,293.954 273.142,294.400 273.000 C 294.846 272.858,295.116 272.588,294.999 272.399 C 294.883 272.210,294.959 271.949,295.170 271.819 C 295.381 271.688,295.955 270.776,296.447 269.791 C 296.939 268.806,297.453 268.000,297.589 268.000 C 297.725 268.000,298.414 266.874,299.120 265.497 L 300.404 262.994 300.302 220.630 C 300.235 192.812,300.063 178.230,299.800 178.160 C 299.580 178.102,298.815 178.345,298.100 178.700 M269.200 253.567 C 269.200 270.486,269.126 272.000,268.295 272.000 C 268.064 272.000,267.319 272.415,266.638 272.923 C 265.957 273.431,264.725 274.159,263.900 274.542 C 263.075 274.925,262.400 275.420,262.400 275.642 C 262.400 275.865,262.220 275.936,262.000 275.800 C 261.780 275.664,261.600 275.754,261.600 276.000 C 261.600 276.246,261.440 276.349,261.245 276.228 C 261.050 276.107,260.668 276.277,260.396 276.604 C 260.124 276.932,259.592 277.200,259.213 277.200 C 258.834 277.200,258.001 277.650,257.362 278.200 C 256.723 278.749,256.030 279.199,255.822 279.200 C 255.614 279.200,254.911 279.695,254.260 280.300 C 253.609 280.905,253.225 281.130,253.407 280.800 C 253.646 280.366,253.516 280.394,252.937 280.900 C 252.497 281.285,251.952 281.600,251.727 281.600 C 251.501 281.600,250.841 282.041,250.258 282.581 C 249.676 283.120,249.200 283.463,249.200 283.343 C 249.200 283.222,248.213 283.681,247.006 284.362 C 245.799 285.043,244.629 285.600,244.406 285.600 C 243.903 285.600,243.849 251.257,244.351 250.466 C 244.537 250.172,244.812 249.966,244.962 250.007 C 245.524 250.163,247.581 249.093,247.371 248.754 C 247.251 248.559,247.523 248.400,247.976 248.400 C 248.429 248.400,248.800 248.260,248.800 248.089 C 248.800 247.919,250.330 246.999,252.200 246.046 C 254.070 245.094,255.600 244.153,255.600 243.957 C 255.600 243.761,255.870 243.600,256.200 243.600 C 256.530 243.600,256.800 243.390,256.800 243.133 C 256.800 242.877,256.909 242.776,257.043 242.909 C 257.176 243.043,258.869 242.173,260.804 240.976 C 262.739 239.779,264.510 238.800,264.741 238.800 C 264.972 238.800,265.304 238.575,265.480 238.299 C 265.780 237.830,268.240 236.482,268.900 236.426 C 269.065 236.412,269.200 244.125,269.200 253.567 M268.400 338.634 L 268.400 359.582 267.418 360.225 C 266.877 360.579,266.247 360.753,266.018 360.611 C 265.788 360.469,265.600 360.522,265.600 360.730 C 265.600 360.937,265.285 361.212,264.900 361.342 C 264.140 361.597,262.721 362.451,262.400 362.846 C 262.290 362.981,261.795 363.219,261.300 363.373 C 260.805 363.528,260.400 363.809,260.400 363.998 C 260.400 364.187,259.455 364.811,258.300 365.384 C 257.145 365.957,255.660 366.755,255.000 367.157 C 253.406 368.126,250.943 369.537,249.117 370.527 C 248.301 370.969,247.729 371.486,247.846 371.675 C 247.964 371.865,247.911 371.984,247.730 371.940 C 247.213 371.815,245.200 372.888,245.200 373.288 C 245.200 373.485,245.020 373.536,244.800 373.400 C 244.580 373.264,244.400 373.343,244.400 373.576 C 244.400 373.809,244.220 374.000,244.000 374.000 C 243.738 374.000,243.600 366.678,243.600 352.833 L 243.600 331.665 245.100 330.750 C 245.925 330.246,246.660 329.691,246.733 329.517 C 246.807 329.343,247.145 329.200,247.486 329.200 C 248.164 329.200,250.919 327.626,251.133 327.117 C 251.207 326.943,251.522 326.800,251.833 326.800 C 252.145 326.800,252.400 326.590,252.400 326.333 C 252.400 326.077,252.513 325.979,252.651 326.117 C 253.072 326.538,255.252 325.207,254.947 324.715 C 254.770 324.428,254.890 324.349,255.276 324.497 C 255.615 324.627,256.310 324.334,256.850 323.834 C 257.381 323.342,258.037 323.012,258.308 323.103 C 258.579 323.193,258.800 323.091,258.800 322.875 C 258.800 322.660,260.150 321.798,261.800 320.961 C 263.450 320.123,264.800 319.294,264.800 319.119 C 264.800 318.943,265.070 318.800,265.400 318.800 C 265.730 318.800,266.000 318.620,266.000 318.400 C 266.000 318.180,266.270 318.000,266.600 318.000 C 266.930 318.000,267.200 317.826,267.200 317.613 C 267.200 317.399,267.470 317.329,267.800 317.455 C 268.323 317.656,268.400 320.382,268.400 338.634 " stroke="none" fill="#449cd4" fill-rule="evenodd"></path><path id="path1" d="M201.389 0.545 C 200.955 0.845,198.170 2.401,195.200 4.002 C 192.230 5.603,189.530 7.139,189.200 7.416 C 188.870 7.692,187.610 8.453,186.400 9.106 C 185.190 9.759,183.300 10.791,182.200 11.399 C 181.100 12.007,179.030 13.145,177.600 13.927 C 176.170 14.709,174.460 15.743,173.800 16.225 C 173.140 16.706,171.316 17.737,169.747 18.516 C 168.177 19.294,166.195 20.372,165.341 20.911 C 164.487 21.450,162.801 22.389,161.594 22.998 C 160.387 23.607,159.309 24.246,159.197 24.418 C 159.086 24.591,156.602 26.011,153.678 27.574 C 150.753 29.136,147.653 30.862,146.788 31.407 C 145.923 31.953,145.052 32.400,144.851 32.400 C 144.248 32.400,143.903 33.768,144.458 33.953 C 144.735 34.045,146.231 34.814,147.781 35.662 C 149.331 36.510,152.220 38.035,154.200 39.052 C 156.180 40.068,157.890 41.040,158.000 41.210 C 158.201 41.522,166.483 46.073,170.200 47.914 C 171.300 48.459,172.746 49.311,173.414 49.807 C 174.555 50.656,175.866 51.387,183.800 55.601 C 185.560 56.536,187.900 57.882,189.000 58.594 C 190.100 59.305,193.160 61.019,195.800 62.403 C 198.440 63.787,202.310 65.949,204.400 67.207 C 206.490 68.464,209.910 70.351,212.000 71.399 C 214.090 72.447,216.520 73.790,217.400 74.383 C 218.929 75.413,221.991 77.107,229.000 80.800 C 230.760 81.727,232.470 82.722,232.800 83.010 C 233.482 83.607,236.782 85.432,242.600 88.430 C 244.800 89.564,246.870 90.725,247.200 91.010 C 247.832 91.558,261.015 98.800,261.379 98.800 C 261.495 98.800,261.958 99.115,262.406 99.500 C 262.855 99.885,264.432 100.835,265.911 101.611 C 271.678 104.638,276.688 107.407,278.607 108.628 C 279.711 109.331,281.961 110.591,283.607 111.427 C 285.253 112.264,288.940 114.315,291.800 115.986 C 294.660 117.656,298.710 119.899,300.800 120.970 C 302.890 122.041,305.500 123.494,306.600 124.198 C 308.971 125.717,312.661 127.754,316.800 129.828 C 318.450 130.655,320.790 131.995,322.000 132.807 C 323.210 133.618,326.683 135.579,329.717 137.164 C 332.751 138.750,335.901 140.503,336.717 141.061 C 337.533 141.619,339.039 142.503,340.064 143.026 L 341.928 143.977 344.264 142.686 C 345.549 141.977,347.410 140.887,348.400 140.265 C 349.390 139.643,352.180 138.042,354.600 136.708 C 360.444 133.486,360.359 133.535,362.223 132.333 C 363.116 131.758,365.636 130.343,367.823 129.189 C 370.010 128.036,373.592 126.010,375.781 124.689 C 377.971 123.367,381.931 121.122,384.581 119.699 C 387.232 118.277,389.760 116.783,390.200 116.380 C 390.640 115.978,391.360 115.502,391.800 115.323 C 393.860 114.485,398.799 111.477,398.794 111.064 C 398.789 110.609,395.475 108.531,393.700 107.869 C 393.205 107.684,392.800 107.368,392.800 107.167 C 392.800 106.965,392.635 106.800,392.433 106.800 C 392.231 106.800,390.696 105.990,389.021 105.000 C 387.346 104.009,384.856 102.636,383.488 101.949 C 382.120 101.261,380.100 100.109,379.000 99.390 C 375.824 97.313,365.876 92.000,365.163 92.000 C 364.806 92.000,362.951 92.900,361.039 94.000 C 359.127 95.100,357.423 96.000,357.251 96.000 C 357.079 96.000,355.513 96.947,353.769 98.105 C 352.026 99.262,350.060 100.475,349.400 100.799 C 348.740 101.123,347.072 102.066,345.693 102.894 C 344.314 103.722,343.070 104.400,342.928 104.400 C 342.646 104.400,338.723 106.831,338.400 107.206 C 338.290 107.334,337.339 107.936,336.287 108.544 L 334.374 109.649 332.887 108.759 C 332.069 108.269,331.130 107.647,330.800 107.376 C 330.470 107.105,327.320 105.311,323.800 103.388 C 320.280 101.466,316.500 99.310,315.400 98.598 C 314.300 97.886,310.974 95.975,308.008 94.352 C 301.729 90.915,302.117 91.134,298.108 88.759 C 296.399 87.746,293.740 86.232,292.200 85.395 C 290.660 84.557,287.690 82.846,285.600 81.592 C 283.510 80.339,280.131 78.442,278.090 77.378 C 275.017 75.775,274.502 75.376,275.090 75.056 C 275.481 74.843,275.890 74.535,276.000 74.373 C 276.110 74.210,277.370 73.461,278.800 72.707 C 282.542 70.734,289.364 66.775,289.600 66.439 C 289.710 66.282,291.060 65.465,292.600 64.625 C 298.297 61.516,304.400 57.913,304.394 57.660 C 304.375 56.861,300.404 54.369,294.344 51.352 C 292.882 50.625,291.435 49.778,291.127 49.470 C 290.631 48.974,285.451 46.036,279.259 42.740 C 276.606 41.327,276.190 41.326,273.978 42.726 C 273.000 43.345,270.220 44.988,267.800 46.378 C 265.380 47.768,263.309 49.046,263.198 49.218 C 263.087 49.390,260.747 50.828,257.998 52.415 C 251.944 55.910,251.392 56.245,248.939 57.919 C 246.822 59.363,245.791 59.378,244.000 57.988 C 242.990 57.204,241.074 56.098,233.800 52.093 C 231.600 50.882,228.900 49.308,227.800 48.596 C 226.700 47.884,224.066 46.388,221.947 45.272 C 219.828 44.157,215.868 41.913,213.147 40.287 C 210.426 38.661,206.715 36.562,204.900 35.621 C 200.909 33.553,200.882 33.368,204.300 31.464 C 205.785 30.636,207.486 29.653,208.079 29.279 C 208.672 28.906,210.562 27.739,212.279 26.688 C 213.996 25.636,216.480 24.089,217.800 23.250 C 219.120 22.411,221.955 20.682,224.100 19.408 C 229.193 16.382,229.195 16.162,224.157 13.000 C 220.477 10.690,217.131 8.503,214.600 6.752 C 205.932 0.758,203.045 -0.599,201.389 0.545 M131.400 40.163 C 127.146 42.732,124.735 44.087,117.500 47.978 C 113.890 49.919,114.185 50.420,121.169 54.202 C 123.901 55.682,127.911 57.952,130.078 59.247 C 132.246 60.541,134.082 61.600,134.158 61.600 C 134.477 61.600,141.607 65.651,143.611 66.970 C 144.805 67.757,145.938 68.400,146.129 68.400 C 146.320 68.400,146.954 68.736,147.538 69.147 C 148.122 69.557,150.400 70.849,152.600 72.017 C 154.800 73.185,156.690 74.261,156.800 74.407 C 156.910 74.553,160.060 76.350,163.800 78.400 C 167.540 80.450,171.522 82.723,172.648 83.451 C 173.774 84.178,177.104 86.063,180.048 87.639 C 182.992 89.215,185.670 90.721,186.000 90.987 C 186.754 91.593,192.709 94.986,195.316 96.296 L 197.278 97.281 195.939 98.102 C 187.020 103.570,187.026 103.569,183.587 101.620 C 182.015 100.729,180.578 100.000,180.395 100.000 C 180.211 100.000,179.553 99.584,178.931 99.075 C 177.678 98.051,175.867 96.989,170.800 94.304 C 168.930 93.313,166.500 91.952,165.400 91.279 C 161.916 89.150,155.689 85.600,155.437 85.600 C 155.304 85.600,152.901 84.223,150.097 82.541 C 147.294 80.858,143.110 78.490,140.800 77.279 C 138.490 76.067,136.240 74.764,135.800 74.383 C 135.360 74.002,134.010 73.155,132.800 72.501 C 125.737 68.682,121.327 66.208,120.800 65.769 C 120.470 65.495,118.130 64.158,115.600 62.800 C 113.070 61.441,109.345 59.343,107.322 58.139 C 103.440 55.827,103.091 55.786,101.200 57.422 C 100.870 57.707,98.080 59.321,95.000 61.007 C 91.920 62.694,88.860 64.373,88.200 64.737 C 87.540 65.102,86.540 65.760,85.978 66.200 C 85.416 66.640,83.211 67.891,81.078 68.980 C 77.203 70.959,76.308 71.973,77.900 72.583 C 78.285 72.730,80.670 74.074,83.200 75.570 C 85.730 77.065,89.690 79.312,92.000 80.563 C 94.310 81.814,97.100 83.391,98.200 84.068 C 99.300 84.744,102.540 86.559,105.400 88.101 C 108.260 89.643,110.690 91.027,110.800 91.176 C 111.035 91.493,119.470 96.208,121.800 97.324 C 122.680 97.745,123.940 98.493,124.600 98.985 C 125.260 99.478,127.181 100.624,128.869 101.532 C 130.557 102.441,132.807 103.684,133.869 104.296 C 134.931 104.907,136.685 105.839,137.768 106.366 C 138.850 106.893,140.070 107.611,140.480 107.962 C 140.889 108.313,143.244 109.687,145.712 111.015 C 153.922 115.433,154.569 115.797,155.103 116.288 C 155.395 116.557,157.201 117.614,159.117 118.638 C 161.033 119.661,165.030 121.901,168.000 123.614 C 170.970 125.327,175.470 127.852,178.000 129.225 C 180.530 130.598,183.498 132.324,184.595 133.061 C 185.692 133.797,186.719 134.400,186.877 134.400 C 187.035 134.400,188.028 134.908,189.082 135.529 C 190.137 136.150,192.440 137.431,194.200 138.377 C 195.960 139.323,198.300 140.680,199.400 141.392 C 201.821 142.961,211.126 148.000,211.603 148.000 C 211.790 148.000,212.216 148.273,212.549 148.606 C 213.219 149.276,218.566 152.489,219.747 152.931 C 220.158 153.085,223.848 155.154,227.947 157.529 C 232.046 159.904,236.390 162.362,237.600 162.990 C 241.038 164.775,241.332 164.943,242.667 165.900 C 243.358 166.395,244.023 166.800,244.144 166.800 C 244.266 166.800,245.318 167.369,246.482 168.065 C 247.647 168.760,250.310 170.217,252.400 171.302 C 254.490 172.387,256.485 173.529,256.833 173.839 C 257.463 174.400,261.144 176.473,267.600 179.903 C 269.470 180.896,271.429 182.045,271.954 182.455 C 273.178 183.411,273.466 183.394,274.962 182.272 C 275.643 181.761,278.960 179.844,282.333 178.010 C 285.706 176.177,288.682 174.460,288.947 174.196 C 289.212 173.931,291.402 172.673,293.814 171.401 C 298.723 168.810,299.204 168.493,299.191 167.851 C 299.182 167.366,291.663 162.837,285.800 159.785 C 283.820 158.755,281.930 157.674,281.600 157.384 C 280.977 156.837,279.854 156.200,272.545 152.254 C 270.155 150.963,267.300 149.316,266.200 148.592 C 265.100 147.869,262.760 146.509,261.000 145.569 C 259.240 144.629,257.129 143.442,256.308 142.930 C 255.487 142.419,254.650 142.000,254.448 142.000 C 254.246 142.000,253.117 141.348,251.940 140.552 C 250.763 139.756,247.910 138.077,245.600 136.822 C 243.290 135.567,240.668 134.104,239.773 133.570 C 238.878 133.037,236.268 131.530,233.973 130.222 C 231.678 128.915,228.000 126.811,225.800 125.547 C 223.600 124.283,220.405 122.483,218.700 121.548 C 214.887 119.454,214.701 119.949,220.602 116.485 L 225.569 113.571 227.656 114.628 C 228.804 115.210,229.988 115.931,230.288 116.231 C 230.588 116.531,232.401 117.624,234.317 118.660 C 238.663 121.010,244.526 124.365,246.842 125.826 C 247.809 126.437,249.545 127.446,250.700 128.068 C 255.359 130.579,257.160 131.604,260.669 133.741 C 262.687 134.970,266.107 136.904,268.269 138.040 C 270.431 139.176,272.470 140.336,272.800 140.618 C 273.319 141.063,275.491 142.305,285.643 147.966 C 286.663 148.535,288.286 149.502,289.249 150.116 C 290.212 150.729,293.473 152.619,296.495 154.316 C 299.517 156.012,303.650 158.368,305.680 159.550 C 310.635 162.437,309.424 162.719,320.714 156.050 C 321.971 155.307,324.980 153.626,327.400 152.315 C 335.787 147.769,335.773 147.832,329.132 144.333 C 326.488 142.940,323.438 141.225,322.355 140.522 C 320.364 139.230,313.351 135.399,309.953 133.747 C 308.938 133.254,307.851 132.613,307.538 132.325 C 306.746 131.594,305.014 130.610,297.800 126.792 C 295.160 125.395,292.910 124.151,292.800 124.026 C 292.513 123.701,291.216 122.970,285.800 120.076 C 279.486 116.702,277.606 115.650,276.400 114.817 C 275.850 114.437,272.681 112.672,269.357 110.895 C 266.034 109.117,262.344 107.046,261.157 106.291 C 259.971 105.537,256.840 103.787,254.200 102.404 C 251.560 101.020,248.050 99.072,246.400 98.074 C 244.750 97.077,241.150 95.089,238.400 93.658 C 235.650 92.227,232.860 90.666,232.200 90.188 C 231.179 89.449,227.612 87.468,220.699 83.800 C 219.870 83.360,217.978 82.262,216.496 81.359 C 215.013 80.457,211.640 78.586,209.000 77.203 C 206.360 75.819,203.930 74.466,203.600 74.196 C 202.902 73.624,200.648 72.367,194.800 69.293 C 192.490 68.078,189.700 66.511,188.600 65.811 C 187.500 65.111,184.440 63.394,181.800 61.996 C 179.160 60.598,176.280 59.004,175.400 58.453 C 173.302 57.140,164.389 52.217,163.536 51.900 C 163.172 51.764,161.642 50.891,160.136 49.959 C 156.684 47.823,153.726 46.183,148.331 43.415 C 145.983 42.210,143.945 41.034,143.801 40.802 C 143.462 40.253,137.375 37.190,136.709 37.232 C 136.429 37.250,134.040 38.569,131.400 40.163 M67.924 76.301 C 67.552 76.649,65.379 77.939,63.095 79.167 C 60.811 80.395,58.436 81.805,57.817 82.300 C 57.198 82.795,56.546 83.200,56.367 83.200 C 56.189 83.200,54.981 83.822,53.683 84.583 C 52.385 85.344,49.698 86.829,47.713 87.883 C 45.727 88.937,43.675 90.119,43.151 90.509 C 42.023 91.351,30.012 98.000,29.621 98.000 C 29.473 98.000,28.972 98.353,28.509 98.784 C 28.046 99.216,26.347 100.266,24.734 101.118 C 21.615 102.764,14.858 106.596,12.200 108.226 C 11.320 108.765,9.553 109.754,8.273 110.423 C 5.417 111.915,5.475 112.116,9.430 114.448 C 15.555 118.060,23.948 122.800,24.219 122.800 C 24.370 122.800,25.327 123.406,26.346 124.148 C 27.366 124.889,29.460 126.182,31.000 127.020 C 32.540 127.859,34.624 128.995,35.630 129.545 L 37.460 130.545 41.030 128.540 C 46.385 125.533,47.556 124.851,48.729 124.053 C 49.974 123.206,53.763 120.967,56.514 119.453 L 58.428 118.400 62.714 120.668 C 65.071 121.916,67.500 123.282,68.112 123.704 C 69.608 124.737,79.000 130.033,81.000 130.972 C 81.880 131.385,83.140 132.127,83.800 132.620 C 84.460 133.114,87.880 135.096,91.400 137.026 C 94.920 138.956,98.520 141.018,99.400 141.608 C 100.280 142.198,102.980 143.723,105.400 144.997 C 107.820 146.271,111.420 148.301,113.400 149.509 C 115.380 150.716,119.070 152.786,121.600 154.107 C 124.130 155.429,126.738 156.890,127.395 157.355 C 128.967 158.466,133.370 160.977,137.600 163.173 C 139.470 164.144,142.012 165.627,143.249 166.469 C 144.485 167.311,145.611 168.000,145.751 168.000 C 145.891 168.000,147.876 169.062,150.163 170.360 C 152.450 171.659,154.676 172.834,155.111 172.972 C 155.546 173.110,156.368 173.623,156.937 174.112 C 157.506 174.601,158.826 175.451,159.869 176.001 C 163.558 177.945,170.231 181.706,172.600 183.177 C 173.920 183.996,176.800 185.621,179.000 186.787 C 181.200 187.953,184.710 189.937,186.800 191.195 C 188.890 192.453,192.580 194.524,195.000 195.796 C 197.420 197.069,199.681 198.353,200.024 198.648 C 200.937 199.436,212.101 205.600,212.613 205.600 C 212.853 205.600,213.398 205.921,213.825 206.313 C 215.147 207.528,222.342 211.600,223.167 211.600 C 223.721 211.600,230.565 207.784,232.200 206.565 C 232.860 206.072,234.660 205.031,236.200 204.251 C 240.931 201.854,248.194 197.343,248.316 196.725 C 248.393 196.334,246.596 195.164,242.916 193.207 C 239.882 191.594,237.340 190.123,237.267 189.937 C 237.193 189.752,236.965 189.600,236.759 189.600 C 236.553 189.600,235.639 189.129,234.727 188.554 C 233.816 187.979,231.704 186.811,230.035 185.959 C 228.366 185.108,226.162 183.913,225.138 183.305 C 224.114 182.697,222.404 181.684,221.338 181.054 C 220.272 180.423,217.690 179.001,215.600 177.892 C 213.510 176.784,210.720 175.247,209.400 174.476 C 203.969 171.307,202.020 170.215,198.400 168.316 C 196.310 167.219,193.700 165.739,192.600 165.027 C 191.500 164.315,187.810 162.225,184.400 160.384 C 180.990 158.542,178.110 156.920,178.000 156.778 C 177.890 156.637,175.012 155.024,171.604 153.194 C 168.197 151.365,164.507 149.291,163.404 148.587 C 162.302 147.883,159.471 146.290,157.113 145.049 C 154.754 143.807,151.964 142.265,150.913 141.622 C 148.457 140.121,143.230 137.222,138.400 134.684 C 136.310 133.586,134.510 132.554,134.400 132.391 C 134.290 132.227,132.940 131.427,131.400 130.612 C 129.860 129.797,128.420 128.986,128.200 128.809 C 127.980 128.632,126.021 127.574,123.846 126.457 C 121.671 125.340,119.601 124.165,119.246 123.847 C 118.891 123.528,117.430 122.651,116.000 121.899 C 109.083 118.258,105.311 116.202,104.400 115.577 C 103.850 115.199,100.102 113.062,96.071 110.828 C 92.040 108.594,87.920 106.254,86.915 105.628 L 85.089 104.491 86.044 103.900 C 86.570 103.575,88.566 102.490,90.479 101.489 C 92.393 100.489,94.193 99.456,94.479 99.195 C 94.766 98.933,96.620 97.882,98.600 96.860 C 102.943 94.616,102.997 94.293,99.342 92.445 C 97.770 91.650,96.150 90.710,95.742 90.356 C 95.334 90.001,93.200 88.756,91.000 87.588 C 88.800 86.421,84.660 84.086,81.800 82.401 C 70.676 75.845,69.134 75.167,67.924 76.301 M134.144 204.000 C 134.144 206.090,134.212 206.945,134.294 205.900 C 134.376 204.855,134.376 203.145,134.294 202.100 C 134.212 201.055,134.144 201.910,134.144 204.000 M198.554 252.400 C 198.554 255.150,198.618 256.275,198.696 254.900 C 198.774 253.525,198.774 251.275,198.696 249.900 C 198.618 248.525,198.554 249.650,198.554 252.400 M96.150 302.200 C 96.151 304.620,96.216 305.558,96.296 304.285 C 96.376 303.012,96.375 301.032,96.294 299.885 C 96.214 298.738,96.149 299.780,96.150 302.200 M132.944 306.400 C 132.944 308.490,133.012 309.345,133.094 308.300 C 133.176 307.255,133.176 305.545,133.094 304.500 C 133.012 303.455,132.944 304.310,132.944 306.400 M132.946 314.200 C 132.947 316.400,133.014 317.249,133.095 316.087 C 133.176 314.924,133.176 313.124,133.093 312.087 C 133.011 311.049,132.945 312.000,132.946 314.200 M95.751 348.400 C 95.751 350.930,95.816 351.965,95.896 350.700 C 95.975 349.435,95.975 347.365,95.896 346.100 C 95.816 344.835,95.751 345.870,95.751 348.400 M132.501 351.000 C 132.505 351.880,132.587 352.193,132.683 351.695 C 132.779 351.198,132.775 350.478,132.675 350.095 C 132.575 349.713,132.496 350.120,132.501 351.000 M95.751 357.600 C 95.751 360.130,95.816 361.165,95.896 359.900 C 95.975 358.635,95.975 356.565,95.896 355.300 C 95.816 354.035,95.751 355.070,95.751 357.600 M197.357 407.200 C 197.357 410.170,197.420 411.385,197.497 409.900 C 197.574 408.415,197.574 405.985,197.497 404.500 C 197.420 403.015,197.357 404.230,197.357 407.200 " stroke="none" fill="#2b348c" fill-rule="evenodd"></path><path id="path2" d="M338.176 155.380 C 337.427 155.940,337.432 155.952,338.306 155.732 C 338.805 155.606,339.310 155.345,339.430 155.152 C 339.768 154.604,339.036 154.738,338.176 155.380 M33.759 186.800 C 33.759 189.990,33.821 191.295,33.897 189.700 C 33.973 188.105,33.973 185.495,33.897 183.900 C 33.821 182.305,33.759 183.610,33.759 186.800 M360.700 195.076 C 360.315 195.176,360.000 195.409,360.000 195.592 C 360.000 195.775,360.360 195.831,360.800 195.716 C 361.240 195.601,361.600 195.348,361.600 195.153 C 361.600 194.959,361.555 194.821,361.500 194.846 C 361.445 194.872,361.085 194.975,360.700 195.076 M58.893 197.200 C 58.893 197.970,58.975 198.285,59.076 197.900 C 59.176 197.515,59.176 196.885,59.076 196.500 C 58.975 196.115,58.893 196.430,58.893 197.200 M97.350 200.600 C 97.351 203.020,97.416 203.958,97.496 202.685 C 97.576 201.412,97.575 199.432,97.494 198.285 C 97.414 197.138,97.349 198.180,97.350 200.600 M353.382 215.200 C 353.382 223.670,353.435 227.135,353.499 222.900 C 353.564 218.665,353.564 211.735,353.499 207.500 C 353.435 203.265,353.382 206.730,353.382 215.200 M253.709 204.328 C 252.999 204.698,252.414 205.135,252.409 205.300 C 252.393 205.827,252.967 205.598,254.200 204.588 C 255.590 203.448,255.495 203.399,253.709 204.328 M58.924 207.000 C 58.926 208.320,59.001 208.812,59.090 208.093 C 59.179 207.374,59.177 206.294,59.086 205.693 C 58.995 205.092,58.922 205.680,58.924 207.000 M58.524 211.800 C 58.526 213.120,58.601 213.612,58.690 212.893 C 58.779 212.174,58.777 211.094,58.686 210.493 C 58.595 209.892,58.522 210.480,58.524 211.800 M88.313 220.069 C 88.400 228.013,88.314 230.394,87.951 230.170 C 87.650 229.984,87.582 230.048,87.766 230.345 C 87.925 230.602,88.223 230.709,88.428 230.583 C 88.871 230.309,88.942 210.135,88.500 209.861 C 88.335 209.759,88.251 214.353,88.313 220.069 M162.144 215.600 C 162.144 217.690,162.212 218.545,162.294 217.500 C 162.376 216.455,162.376 214.745,162.294 213.700 C 162.212 212.655,162.144 213.510,162.144 215.600 M60.000 214.732 C 60.000 214.946,60.630 215.493,61.400 215.947 C 62.170 216.401,62.800 216.611,62.800 216.413 C 62.800 216.216,62.441 215.940,62.002 215.801 C 61.564 215.662,60.934 215.277,60.602 214.945 C 60.271 214.614,60.000 214.518,60.000 214.732 M96.951 219.200 C 96.951 221.730,97.016 222.765,97.096 221.500 C 97.175 220.235,97.175 218.165,97.096 216.900 C 97.016 215.635,96.951 216.670,96.951 219.200 M133.744 219.600 C 133.744 221.690,133.812 222.545,133.894 221.500 C 133.976 220.455,133.976 218.745,133.894 217.700 C 133.812 216.655,133.744 217.510,133.744 219.600 M373.700 218.396 C 372.360 219.213,371.853 219.929,373.100 219.243 C 374.029 218.733,375.452 217.628,375.200 217.614 C 375.090 217.608,374.415 217.960,373.700 218.396 M186.200 222.000 C 186.064 222.220,186.008 222.414,186.076 222.431 C 187.393 222.757,187.617 222.703,187.173 222.168 C 186.613 221.493,186.523 221.477,186.200 222.000 M210.997 330.000 C 210.997 385.330,211.043 407.965,211.100 380.300 C 211.157 352.635,211.157 307.365,211.100 279.700 C 211.043 252.035,210.997 274.670,210.997 330.000 M96.953 237.400 C 96.953 240.040,97.018 241.068,97.097 239.684 C 97.175 238.301,97.174 236.141,97.095 234.884 C 97.016 233.628,96.952 234.760,96.953 237.400 M198.267 235.467 C 198.120 235.613,198.035 238.178,198.078 241.167 L 198.156 246.600 198.378 241.000 C 198.625 234.767,198.632 235.102,198.267 235.467 M33.372 260.600 C 33.372 265.660,33.429 267.675,33.499 265.077 C 33.569 262.480,33.568 258.340,33.498 255.877 C 33.428 253.415,33.371 255.540,33.372 260.600 M96.951 256.400 C 96.951 258.930,97.016 259.965,97.096 258.700 C 97.175 257.435,97.175 255.365,97.096 254.100 C 97.016 252.835,96.951 253.870,96.951 256.400 M161.740 262.400 C 161.740 264.270,161.809 265.035,161.893 264.100 C 161.977 263.165,161.977 261.635,161.893 260.700 C 161.809 259.765,161.740 260.530,161.740 262.400 M161.449 266.615 C 161.312 266.973,161.232 268.736,161.270 270.533 L 161.340 273.800 161.579 270.000 C 161.836 265.890,161.826 265.633,161.449 266.615 M353.382 270.902 C 353.276 271.178,353.237 277.793,353.295 285.602 L 353.401 299.800 353.600 285.100 C 353.710 277.015,353.749 270.400,353.687 270.400 C 353.626 270.400,353.488 270.626,353.382 270.902 M96.946 274.600 C 96.947 276.800,97.014 277.649,97.095 276.487 C 97.176 275.324,97.176 273.524,97.093 272.487 C 97.011 271.449,96.945 272.400,96.946 274.600 M392.400 275.833 C 391.842 276.143,391.665 276.385,392.000 276.381 C 392.330 276.378,392.949 276.110,393.376 275.787 C 394.339 275.059,393.745 275.087,392.400 275.833 M311.364 286.200 C 311.363 289.940,311.423 291.524,311.497 289.720 C 311.571 287.915,311.572 284.855,311.498 282.920 C 311.425 280.984,311.364 282.460,311.364 286.200 M369.612 289.584 C 369.288 289.789,369.121 290.054,369.241 290.174 C 369.360 290.294,369.805 290.129,370.229 289.809 C 371.073 289.171,370.560 288.985,369.612 289.584 M197.754 296.400 C 197.754 299.150,197.818 300.275,197.896 298.900 C 197.974 297.525,197.974 295.275,197.896 293.900 C 197.818 292.525,197.754 293.650,197.754 296.400 M311.762 299.800 C 311.762 303.320,311.824 304.706,311.898 302.881 C 311.972 301.056,311.972 298.176,311.897 296.481 C 311.822 294.786,311.761 296.280,311.762 299.800 M132.942 298.200 C 132.941 300.180,133.008 301.040,133.092 300.112 C 133.176 299.184,133.177 297.564,133.095 296.512 C 133.012 295.460,132.943 296.220,132.942 298.200 M294.800 299.346 C 294.800 299.456,295.340 299.930,296.000 300.400 C 296.660 300.870,297.200 301.164,297.200 301.054 C 297.200 300.944,296.660 300.470,296.000 300.000 C 295.340 299.530,294.800 299.236,294.800 299.346 M298.224 302.187 C 299.242 302.958,299.824 302.967,299.057 302.200 C 298.727 301.870,298.230 301.600,297.952 301.600 C 297.669 301.600,297.788 301.858,298.224 302.187 M58.093 305.200 C 58.093 305.970,58.175 306.285,58.276 305.900 C 58.376 305.515,58.376 304.885,58.276 304.500 C 58.175 304.115,58.093 304.430,58.093 305.200 M311.600 312.600 C 311.600 316.663,311.740 318.761,312.000 318.600 C 312.237 318.454,312.400 316.004,312.400 312.600 C 312.400 309.196,312.237 306.746,312.000 306.600 C 311.740 306.439,311.600 308.537,311.600 312.600 M160.544 324.400 C 160.544 326.490,160.612 327.345,160.694 326.300 C 160.776 325.255,160.776 323.545,160.694 322.500 C 160.612 321.455,160.544 322.310,160.544 324.400 M87.765 337.000 C 87.766 340.960,87.826 342.526,87.898 340.480 C 87.971 338.434,87.971 335.194,87.898 333.280 C 87.824 331.366,87.765 333.040,87.765 337.000 M132.142 345.400 C 132.141 347.380,132.208 348.240,132.292 347.312 C 132.376 346.384,132.377 344.764,132.295 343.712 C 132.212 342.660,132.143 343.420,132.142 345.400 M197.354 362.800 C 197.354 365.550,197.418 366.675,197.496 365.300 C 197.574 363.925,197.574 361.675,197.496 360.300 C 197.418 358.925,197.354 360.050,197.354 362.800 M267.000 360.000 C 266.340 360.437,266.005 360.796,266.256 360.797 C 266.693 360.800,268.811 359.238,268.400 359.216 C 268.290 359.210,267.660 359.563,267.000 360.000 M160.542 363.400 C 160.541 365.380,160.608 366.240,160.692 365.312 C 160.776 364.384,160.777 362.764,160.695 361.712 C 160.612 360.660,160.543 361.420,160.542 363.400 M312.160 365.800 C 312.161 369.100,312.222 370.397,312.298 368.682 C 312.373 366.967,312.372 364.267,312.297 362.682 C 312.221 361.097,312.159 362.500,312.160 365.800 M87.740 363.600 C 87.740 365.470,87.809 366.235,87.893 365.300 C 87.977 364.365,87.977 362.835,87.893 361.900 C 87.809 360.965,87.740 361.730,87.740 363.600 M95.751 366.400 C 95.751 368.930,95.816 369.965,95.896 368.700 C 95.975 367.435,95.975 365.365,95.896 364.100 C 95.816 362.835,95.751 363.870,95.751 366.400 M267.429 398.229 C 266.241 399.416,266.678 399.547,268.000 398.400 C 268.507 397.960,268.728 397.600,268.490 397.600 C 268.252 397.600,267.774 397.883,267.429 398.229 M196.955 407.000 C 196.956 409.860,197.020 410.978,197.097 409.483 C 197.174 407.989,197.174 405.649,197.096 404.283 C 197.018 402.918,196.955 404.140,196.955 407.000 M197.000 412.706 C 196.750 412.890,196.678 414.950,196.807 418.200 L 197.014 423.400 197.207 417.899 C 197.313 414.874,197.400 412.402,197.400 412.405 C 197.400 412.409,197.220 412.544,197.000 412.706 M169.200 415.282 C 169.970 415.766,170.690 416.173,170.800 416.187 C 170.910 416.201,171.253 416.372,171.562 416.568 C 171.929 416.800,172.033 416.778,171.864 416.503 C 171.595 416.068,168.596 414.399,168.088 414.401 C 167.929 414.402,168.430 414.799,169.200 415.282 M196.931 427.000 C 196.933 428.540,197.005 429.121,197.092 428.291 C 197.179 427.461,197.177 426.201,197.089 425.491 C 197.000 424.781,196.929 425.460,196.931 427.000 " stroke="none" fill="#449cdc" fill-rule="evenodd"></path><path id="path3" d="M88.586 188.600 C 88.587 200.480,88.638 205.282,88.700 199.272 C 88.762 193.261,88.762 183.541,88.700 177.672 C 88.637 171.802,88.586 176.720,88.586 188.600 M97.354 181.600 C 97.354 184.350,97.418 185.475,97.496 184.100 C 97.574 182.725,97.574 180.475,97.496 179.100 C 97.418 177.725,97.354 178.850,97.354 181.600 M299.898 177.892 C 300.289 178.169,300.419 187.356,300.501 220.622 L 300.606 263.000 300.603 220.433 C 300.600 182.937,300.529 177.847,300.000 177.703 C 299.558 177.582,299.531 177.632,299.898 177.892 M34.159 186.800 C 34.159 189.990,34.221 191.295,34.297 189.700 C 34.373 188.105,34.373 185.495,34.297 183.900 C 34.221 182.305,34.159 183.610,34.159 186.800 M34.173 202.200 C 34.173 207.480,34.230 209.585,34.299 206.877 C 34.368 204.169,34.368 199.849,34.299 197.277 C 34.229 194.705,34.172 196.920,34.173 202.200 M34.173 221.600 C 34.173 226.990,34.230 229.195,34.299 226.500 C 34.368 223.805,34.368 219.395,34.299 216.700 C 34.230 214.005,34.173 216.210,34.173 221.600 M161.767 219.400 C 161.767 223.580,161.826 225.236,161.898 223.079 C 161.971 220.923,161.970 217.503,161.898 215.479 C 161.825 213.456,161.766 215.220,161.767 219.400 M96.951 228.400 C 96.951 230.930,97.016 231.965,97.096 230.700 C 97.175 229.435,97.175 227.365,97.096 226.100 C 97.016 224.835,96.951 225.870,96.951 228.400 M198.537 232.200 C 198.539 233.960,198.609 234.630,198.693 233.689 C 198.778 232.749,198.777 231.309,198.691 230.489 C 198.605 229.670,198.536 230.440,198.537 232.200 M133.746 235.800 C 133.747 238.000,133.814 238.849,133.895 237.687 C 133.976 236.524,133.976 234.724,133.893 233.687 C 133.811 232.649,133.745 233.600,133.746 235.800 M198.558 241.400 C 198.558 244.480,198.621 245.687,198.697 244.082 C 198.773 242.478,198.773 239.958,198.696 238.482 C 198.619 237.007,198.557 238.320,198.558 241.400 M268.896 253.620 C 268.836 264.457,268.649 271.222,268.401 271.521 C 268.181 271.788,268.273 271.770,268.606 271.483 C 269.129 271.032,269.194 268.663,269.100 253.581 L 268.991 236.200 268.896 253.620 M311.361 247.200 C 311.361 250.610,311.422 252.005,311.497 250.300 C 311.572 248.595,311.572 245.805,311.497 244.100 C 311.422 242.395,311.361 243.790,311.361 247.200 M96.950 246.600 C 96.951 249.020,97.016 249.958,97.096 248.685 C 97.176 247.412,97.175 245.432,97.094 244.285 C 97.014 243.138,96.949 244.180,96.950 246.600 M244.184 268.200 C 244.184 277.880,244.236 281.783,244.300 276.873 C 244.363 271.963,244.363 264.043,244.300 259.273 C 244.236 254.503,244.184 258.520,244.184 268.200 M33.772 260.600 C 33.772 265.660,33.829 267.675,33.899 265.077 C 33.969 262.480,33.968 258.340,33.898 255.877 C 33.828 253.415,33.771 255.540,33.772 260.600 M96.571 260.800 C 96.571 265.750,96.628 267.775,96.699 265.300 C 96.769 262.825,96.769 258.775,96.699 256.300 C 96.628 253.825,96.571 255.850,96.571 260.800 M311.363 260.000 C 311.363 263.630,311.423 265.115,311.498 263.300 C 311.572 261.485,311.572 258.515,311.498 256.700 C 311.423 254.885,311.363 256.370,311.363 260.000 M161.346 262.600 C 161.347 264.800,161.414 265.649,161.495 264.487 C 161.576 263.324,161.576 261.524,161.493 260.487 C 161.411 259.449,161.345 260.400,161.346 262.600 M311.363 273.200 C 311.363 276.830,311.423 278.315,311.498 276.500 C 311.572 274.685,311.572 271.715,311.498 269.900 C 311.423 268.085,311.363 269.570,311.363 273.200 M96.553 274.600 C 96.553 277.240,96.618 278.268,96.697 276.884 C 96.775 275.501,96.774 273.341,96.695 272.084 C 96.616 270.828,96.552 271.960,96.553 274.600 M33.772 279.800 C 33.772 284.860,33.829 286.875,33.899 284.277 C 33.969 281.680,33.968 277.540,33.898 275.077 C 33.828 272.615,33.771 274.740,33.772 279.800 M371.400 288.400 C 370.740 288.837,370.380 289.192,370.600 289.188 C 371.001 289.182,373.176 287.623,372.800 287.612 C 372.690 287.608,372.060 287.963,371.400 288.400 M96.150 293.000 C 96.151 295.420,96.216 296.358,96.296 295.085 C 96.376 293.812,96.375 291.832,96.294 290.685 C 96.214 289.538,96.149 290.580,96.150 293.000 M33.776 293.968 C 33.795 297.319,33.918 298.167,34.400 298.298 C 34.828 298.414,34.861 298.362,34.516 298.116 C 34.209 297.899,33.980 296.304,33.892 293.786 L 33.752 289.800 33.776 293.968 M160.944 293.600 C 160.944 295.690,161.012 296.545,161.094 295.500 C 161.176 294.455,161.176 292.745,161.094 291.700 C 161.012 290.655,160.944 291.510,160.944 293.600 M287.600 293.746 C 287.600 293.856,288.140 294.330,288.800 294.800 C 289.460 295.270,290.000 295.564,290.000 295.454 C 290.000 295.344,289.460 294.870,288.800 294.400 C 288.140 293.930,287.600 293.636,287.600 293.746 M160.942 301.400 C 160.941 303.380,161.008 304.240,161.092 303.312 C 161.176 302.384,161.177 300.764,161.095 299.712 C 161.012 298.660,160.943 299.420,160.942 301.400 M300.592 341.600 C 300.592 362.390,300.641 370.895,300.700 360.500 C 300.759 350.105,300.759 333.095,300.700 322.700 C 300.641 312.305,300.592 320.810,300.592 341.600 M96.151 311.600 C 96.151 314.130,96.216 315.165,96.296 313.900 C 96.375 312.635,96.375 310.565,96.296 309.300 C 96.216 308.035,96.151 309.070,96.151 311.600 M88.134 311.200 C 88.134 312.850,88.205 313.525,88.291 312.700 C 88.378 311.875,88.378 310.525,88.291 309.700 C 88.205 308.875,88.134 309.550,88.134 311.200 M268.000 338.480 C 267.890 350.074,267.937 359.424,268.104 359.257 C 268.271 359.089,268.361 349.603,268.304 338.176 L 268.200 317.400 268.000 338.480 M132.946 321.800 C 132.947 324.000,133.014 324.849,133.095 323.687 C 133.176 322.524,133.176 320.724,133.093 319.687 C 133.011 318.649,132.945 319.600,132.946 321.800 M160.550 332.200 C 160.551 334.620,160.616 335.558,160.696 334.285 C 160.776 333.012,160.775 331.032,160.694 329.885 C 160.614 328.738,160.549 329.780,160.550 332.200 M311.765 338.800 C 311.765 342.650,311.825 344.225,311.898 342.300 C 311.971 340.375,311.971 337.225,311.898 335.300 C 311.825 333.375,311.765 334.950,311.765 338.800 M95.751 339.200 C 95.751 341.730,95.816 342.765,95.896 341.500 C 95.975 340.235,95.975 338.165,95.896 336.900 C 95.816 335.635,95.751 336.670,95.751 339.200 M197.757 340.400 C 197.757 343.370,197.820 344.585,197.897 343.100 C 197.974 341.615,197.974 339.185,197.897 337.700 C 197.820 336.215,197.757 337.430,197.757 340.400 M132.551 345.200 C 132.551 347.730,132.616 348.765,132.696 347.500 C 132.775 346.235,132.775 344.165,132.696 342.900 C 132.616 341.635,132.551 342.670,132.551 345.200 M160.146 363.400 C 160.147 365.600,160.214 366.449,160.295 365.287 C 160.376 364.124,160.376 362.324,160.293 361.287 C 160.211 360.249,160.145 361.200,160.146 363.400 M197.358 396.600 C 197.358 399.680,197.421 400.887,197.497 399.282 C 197.573 397.678,197.573 395.158,197.496 393.682 C 197.419 392.207,197.357 393.520,197.358 396.600 M197.358 418.200 C 197.358 421.280,197.421 422.487,197.497 420.882 C 197.573 419.278,197.573 416.758,197.496 415.282 C 197.419 413.807,197.357 415.120,197.358 418.200 " stroke="none" fill="#3480d8" fill-rule="evenodd"></path><path id="path4" d="M88.586 188.600 C 88.587 200.480,88.638 205.282,88.700 199.272 C 88.762 193.261,88.762 183.541,88.700 177.672 C 88.637 171.802,88.586 176.720,88.586 188.600 M97.354 181.600 C 97.354 184.350,97.418 185.475,97.496 184.100 C 97.574 182.725,97.574 180.475,97.496 179.100 C 97.418 177.725,97.354 178.850,97.354 181.600 M299.898 177.892 C 300.289 178.169,300.419 187.356,300.501 220.622 L 300.606 263.000 300.603 220.433 C 300.600 182.937,300.529 177.847,300.000 177.703 C 299.558 177.582,299.531 177.632,299.898 177.892 M34.159 186.800 C 34.159 189.990,34.221 191.295,34.297 189.700 C 34.373 188.105,34.373 185.495,34.297 183.900 C 34.221 182.305,34.159 183.610,34.159 186.800 M34.173 202.200 C 34.173 207.480,34.230 209.585,34.299 206.877 C 34.368 204.169,34.368 199.849,34.299 197.277 C 34.229 194.705,34.172 196.920,34.173 202.200 M34.173 221.600 C 34.173 226.990,34.230 229.195,34.299 226.500 C 34.368 223.805,34.368 219.395,34.299 216.700 C 34.230 214.005,34.173 216.210,34.173 221.600 M161.767 219.400 C 161.767 223.580,161.826 225.236,161.898 223.079 C 161.971 220.923,161.970 217.503,161.898 215.479 C 161.825 213.456,161.766 215.220,161.767 219.400 M96.951 228.400 C 96.951 230.930,97.016 231.965,97.096 230.700 C 97.175 229.435,97.175 227.365,97.096 226.100 C 97.016 224.835,96.951 225.870,96.951 228.400 M198.537 232.200 C 198.539 233.960,198.609 234.630,198.693 233.689 C 198.778 232.749,198.777 231.309,198.691 230.489 C 198.605 229.670,198.536 230.440,198.537 232.200 M133.746 235.800 C 133.747 238.000,133.814 238.849,133.895 237.687 C 133.976 236.524,133.976 234.724,133.893 233.687 C 133.811 232.649,133.745 233.600,133.746 235.800 M198.558 241.400 C 198.558 244.480,198.621 245.687,198.697 244.082 C 198.773 242.478,198.773 239.958,198.696 238.482 C 198.619 237.007,198.557 238.320,198.558 241.400 M268.896 253.620 C 268.836 264.457,268.649 271.222,268.401 271.521 C 268.181 271.788,268.273 271.770,268.606 271.483 C 269.129 271.032,269.194 268.663,269.100 253.581 L 268.991 236.200 268.896 253.620 M311.361 247.200 C 311.361 250.610,311.422 252.005,311.497 250.300 C 311.572 248.595,311.572 245.805,311.497 244.100 C 311.422 242.395,311.361 243.790,311.361 247.200 M96.950 246.600 C 96.951 249.020,97.016 249.958,97.096 248.685 C 97.176 247.412,97.175 245.432,97.094 244.285 C 97.014 243.138,96.949 244.180,96.950 246.600 M244.184 268.200 C 244.184 277.880,244.236 281.783,244.300 276.873 C 244.363 271.963,244.363 264.043,244.300 259.273 C 244.236 254.503,244.184 258.520,244.184 268.200 M33.772 260.600 C 33.772 265.660,33.829 267.675,33.899 265.077 C 33.969 262.480,33.968 258.340,33.898 255.877 C 33.828 253.415,33.771 255.540,33.772 260.600 M96.571 260.800 C 96.571 265.750,96.628 267.775,96.699 265.300 C 96.769 262.825,96.769 258.775,96.699 256.300 C 96.628 253.825,96.571 255.850,96.571 260.800 M311.363 260.000 C 311.363 263.630,311.423 265.115,311.498 263.300 C 311.572 261.485,311.572 258.515,311.498 256.700 C 311.423 254.885,311.363 256.370,311.363 260.000 M161.346 262.600 C 161.347 264.800,161.414 265.649,161.495 264.487 C 161.576 263.324,161.576 261.524,161.493 260.487 C 161.411 259.449,161.345 260.400,161.346 262.600 M311.363 273.200 C 311.363 276.830,311.423 278.315,311.498 276.500 C 311.572 274.685,311.572 271.715,311.498 269.900 C 311.423 268.085,311.363 269.570,311.363 273.200 M96.553 274.600 C 96.553 277.240,96.618 278.268,96.697 276.884 C 96.775 275.501,96.774 273.341,96.695 272.084 C 96.616 270.828,96.552 271.960,96.553 274.600 M33.772 279.800 C 33.772 284.860,33.829 286.875,33.899 284.277 C 33.969 281.680,33.968 277.540,33.898 275.077 C 33.828 272.615,33.771 274.740,33.772 279.800 M371.400 288.400 C 370.740 288.837,370.380 289.192,370.600 289.188 C 371.001 289.182,373.176 287.623,372.800 287.612 C 372.690 287.608,372.060 287.963,371.400 288.400 M96.150 293.000 C 96.151 295.420,96.216 296.358,96.296 295.085 C 96.376 293.812,96.375 291.832,96.294 290.685 C 96.214 289.538,96.149 290.580,96.150 293.000 M33.776 293.968 C 33.795 297.319,33.918 298.167,34.400 298.298 C 34.828 298.414,34.861 298.362,34.516 298.116 C 34.209 297.899,33.980 296.304,33.892 293.786 L 33.752 289.800 33.776 293.968 M160.944 293.600 C 160.944 295.690,161.012 296.545,161.094 295.500 C 161.176 294.455,161.176 292.745,161.094 291.700 C 161.012 290.655,160.944 291.510,160.944 293.600 M287.600 293.746 C 287.600 293.856,288.140 294.330,288.800 294.800 C 289.460 295.270,290.000 295.564,290.000 295.454 C 290.000 295.344,289.460 294.870,288.800 294.400 C 288.140 293.930,287.600 293.636,287.600 293.746 M160.942 301.400 C 160.941 303.380,161.008 304.240,161.092 303.312 C 161.176 302.384,161.177 300.764,161.095 299.712 C 161.012 298.660,160.943 299.420,160.942 301.400 M300.592 341.600 C 300.592 362.390,300.641 370.895,300.700 360.500 C 300.759 350.105,300.759 333.095,300.700 322.700 C 300.641 312.305,300.592 320.810,300.592 341.600 M96.151 311.600 C 96.151 314.130,96.216 315.165,96.296 313.900 C 96.375 312.635,96.375 310.565,96.296 309.300 C 96.216 308.035,96.151 309.070,96.151 311.600 M88.134 311.200 C 88.134 312.850,88.205 313.525,88.291 312.700 C 88.378 311.875,88.378 310.525,88.291 309.700 C 88.205 308.875,88.134 309.550,88.134 311.200 M268.000 338.480 C 267.890 350.074,267.937 359.424,268.104 359.257 C 268.271 359.089,268.361 349.603,268.304 338.176 L 268.200 317.400 268.000 338.480 M132.946 321.800 C 132.947 324.000,133.014 324.849,133.095 323.687 C 133.176 322.524,133.176 320.724,133.093 319.687 C 133.011 318.649,132.945 319.600,132.946 321.800 M160.550 332.200 C 160.551 334.620,160.616 335.558,160.696 334.285 C 160.776 333.012,160.775 331.032,160.694 329.885 C 160.614 328.738,160.549 329.780,160.550 332.200 M311.765 338.800 C 311.765 342.650,311.825 344.225,311.898 342.300 C 311.971 340.375,311.971 337.225,311.898 335.300 C 311.825 333.375,311.765 334.950,311.765 338.800 M95.751 339.200 C 95.751 341.730,95.816 342.765,95.896 341.500 C 95.975 340.235,95.975 338.165,95.896 336.900 C 95.816 335.635,95.751 336.670,95.751 339.200 M197.757 340.400 C 197.757 343.370,197.820 344.585,197.897 343.100 C 197.974 341.615,197.974 339.185,197.897 337.700 C 197.820 336.215,197.757 337.430,197.757 340.400 M132.551 345.200 C 132.551 347.730,132.616 348.765,132.696 347.500 C 132.775 346.235,132.775 344.165,132.696 342.900 C 132.616 341.635,132.551 342.670,132.551 345.200 M160.146 363.400 C 160.147 365.600,160.214 366.449,160.295 365.287 C 160.376 364.124,160.376 362.324,160.293 361.287 C 160.211 360.249,160.145 361.200,160.146 363.400 M197.358 396.600 C 197.358 399.680,197.421 400.887,197.497 399.282 C 197.573 397.678,197.573 395.158,197.496 393.682 C 197.419 392.207,197.357 393.520,197.358 396.600 M197.358 418.200 C 197.358 421.280,197.421 422.487,197.497 420.882 C 197.573 419.278,197.573 416.758,197.496 415.282 C 197.419 413.807,197.357 415.120,197.358 418.200 " stroke="none" fill="#3480d8" fill-rule="evenodd"></path></g></svg>