<svg width="998" height="149" viewBox="0 0 998 149" fill="none" xmlns="http://www.w3.org/2000/svg">
<path d="M119.8 33.4H76V145H44.4V33.4H0.8V3.19999H119.8V33.4ZM263.963 145H232.163V88.6H175.563V145H143.963V3.19999H175.563V58.8H232.163V3.19999H263.963V145ZM389.548 145H299.548V3.19999H389.348V33H331.148V60H383.948V87.8H331.148V115H389.548V145ZM540.769 148C519.969 148 502.502 141.2 488.369 127.6C474.235 113.867 467.169 96.1333 467.169 74.4C467.169 52.8 474.302 35.0667 488.569 21.2C502.835 7.19999 520.102 0.199993 540.369 0.199993C550.502 0.199993 559.635 1.73333 567.769 4.79999C576.035 7.73333 582.702 11.6667 587.769 16.6C592.835 21.5333 596.902 26.6 599.969 31.8C603.035 37 605.169 42.4 606.369 48L576.569 57.4C575.902 54.6 574.835 51.8667 573.369 49.2C571.902 46.4 569.835 43.6 567.169 40.8C564.502 37.8667 560.835 35.5333 556.169 33.8C551.502 31.9333 546.235 31 540.369 31C529.702 31 520.302 34.8 512.169 42.4C504.035 49.8667 499.969 60.5333 499.969 74.4C499.969 87.2 503.969 97.4 511.969 105C519.969 112.6 529.569 116.4 540.769 116.4C551.702 116.4 560.169 113.667 566.169 108.2C572.169 102.733 576.102 96.6 577.969 89.8L608.169 98.4C606.835 103.867 604.635 109.267 601.569 114.6C598.635 119.933 594.569 125.2 589.369 130.4C584.302 135.6 577.502 139.867 568.969 143.2C560.569 146.4 551.169 148 540.769 148ZM728.303 134C717.77 143.467 704.37 148.2 688.103 148.2C671.836 148.2 658.37 143.467 647.703 134C637.17 124.4 631.903 111 631.903 93.8V3.19999H663.503V91.2C663.503 99.6 665.636 106 669.903 110.4C674.303 114.8 680.37 117 688.103 117C695.836 117 701.836 114.8 706.103 110.4C710.503 106 712.703 99.6 712.703 91.2V3.19999H744.303V93.8C744.303 111 738.97 124.4 728.303 134ZM778.923 3.19999H831.923C845.657 3.19999 856.457 6.73333 864.323 13.8C872.19 20.8667 876.123 30 876.123 41.2C876.123 48.2667 874.123 54.6 870.123 60.2C866.257 65.8 861.323 69.6 855.323 71.6C862.257 73.2 868.19 77 873.123 83C878.057 88.8667 880.523 96.1333 880.523 104.8C880.523 116.533 876.39 126.2 868.123 133.8C859.99 141.267 849.323 145 836.123 145H778.923V3.19999ZM809.723 60H826.923C832.523 60 836.923 58.6667 840.123 56C843.457 53.2 845.123 49.4 845.123 44.6C845.123 39.9333 843.523 36.2667 840.323 33.6C837.123 30.8 832.523 29.4 826.523 29.4H809.723V60ZM809.723 119.2H829.523C835.657 119.2 840.457 117.733 843.923 114.8C847.39 111.733 849.123 107.667 849.123 102.6C849.123 97.6667 847.39 93.6667 843.923 90.6C840.457 87.5333 835.657 86 829.523 86H809.723V119.2ZM997.361 145H907.361V3.19999H997.161V33H938.961V60H991.761V87.8H938.961V115H997.361V145Z" fill="black"/>
</svg>
