<svg width="326" height="60" viewBox="0 0 326 60" fill="none" xmlns="http://www.w3.org/2000/svg">
<path d="M23.064 0.0573425C23.064 0.114689 22.9493 1.63432 22.806 3.44068C22.0318 13.6767 18.0177 22.6511 10.9643 29.8192C9.64538 31.1668 7.86769 32.8012 7.00752 33.4606C5.45921 34.6362 0.728278 37.7041 0.0688136 37.9335C-0.160565 38.0195 0.183503 38.9657 1.10102 40.7721C5.83195 50.2053 14.8637 56.9719 25.5299 59.0937C28.4544 59.6671 35.5652 59.6098 38.4611 59.0077C49.3279 56.6565 58.0443 49.9472 62.9186 40.2273C63.406 39.2524 63.8074 38.3923 63.8074 38.3062C63.8074 38.2489 62.8612 37.6755 61.7143 37.0447C49.7293 30.4787 41.8157 18.0636 40.5255 3.87077L40.1814 0H31.6371C26.9348 0 23.0927 0.0286713 23.064 0.0573425ZM36.9701 4.35819C37.0561 4.73093 37.1422 5.3904 37.1422 5.82048C37.1422 8.71639 39.2066 15.8558 41.3283 20.2713C44.855 27.6688 49.9874 33.3746 58.4744 39.3671C58.9905 39.7112 58.9905 39.7972 58.5604 40.6287C57.6716 42.3204 54.6036 46.1625 54.1162 46.1625C52.3098 46.1338 42.5899 37.3601 39.1492 32.6865C33.3861 24.8589 29.9167 16.0278 28.8558 6.59464C28.7125 5.27571 28.6551 4.07147 28.7125 3.95678C28.7985 3.81342 30.6335 3.7274 32.8126 3.7274C36.6834 3.7274 36.7981 3.75608 36.9701 4.35819ZM26.7341 14.7089C27.2215 16.63 28.0817 19.4112 28.6551 20.8448L29.716 23.4826L28.7985 25.289C26.5621 29.7619 23.4654 33.9481 18.8205 38.8224C14.8064 43.0085 13.6595 45.1589 13.6308 48.5136C13.6308 49.2878 13.5161 49.6032 13.2007 49.6032C12.4839 49.6032 7.72433 44.6715 6.20469 42.3204C5.40187 41.0875 4.74241 39.9119 4.74241 39.7399C4.74241 39.5678 5.8893 38.6216 7.29424 37.6181C15.2365 31.9983 21.143 24.0848 24.1249 14.9956C24.6697 13.304 25.1858 11.727 25.2431 11.5263C25.5299 10.6374 25.9026 11.4403 26.7341 14.7089ZM33.2714 30.278C35.0204 33.1739 37.1708 36.0698 39.694 38.9084C40.8122 40.1986 41.7297 41.3168 41.7297 41.4315C41.7297 41.7469 38.0597 43.2952 36.196 43.7253C33.6728 44.3274 29.6587 44.2701 27.0495 43.6106C24.8991 43.0659 22.1465 41.8329 21.8025 41.3168C21.7164 41.1448 22.4906 40.1126 23.5228 38.9657C26.39 35.8691 27.9097 33.8047 31.0349 28.7297C31.2357 28.3856 31.551 28.0989 31.6657 28.0989C31.8091 28.0989 32.5259 29.0738 33.2714 30.278ZM48.5537 46.8219C50.016 47.9115 51.1916 48.915 51.1916 49.0297C51.1916 49.3738 47.6936 51.6389 45.4571 52.7571C37.5436 56.7426 27.1068 56.9719 19.308 53.3306C17.5589 52.4991 16.7561 48.0548 17.8743 45.4743C18.2184 44.7575 18.6198 44.1554 18.8205 44.1554C18.9926 44.1554 19.8241 44.5281 20.6269 44.9869C21.4297 45.4743 23.3221 46.2772 24.813 46.7933C27.3649 47.6534 27.7663 47.7108 31.551 47.7395C36.368 47.7395 38.0883 47.338 42.0165 45.3596C44.5683 44.0694 44.769 44.012 45.3424 44.4135C45.6578 44.6715 47.1201 45.7611 48.5537 46.8219Z" fill="black"/>
<path d="M89.2972 8.80243C87.4621 13.5907 74.1295 49.4885 74.1295 49.6605C74.1295 49.8039 76.0219 49.8612 78.3443 49.8325L82.5592 49.7465L84.1361 45.3883L85.7418 41.0015H94.4008H103.031L103.891 43.2092C104.35 44.4421 105.067 46.4492 105.526 47.6534L106.329 49.8899H110.687H115.045L107.246 29.0164L99.4472 8.17163L94.5155 8.08562L89.6126 8.02827L89.2972 8.80243ZM97.2967 25.5184C98.7304 29.3892 99.9919 32.7725 100.078 33.0306C100.279 33.518 99.8772 33.5467 94.4008 33.5467H88.523L91.4189 25.6331C93.0532 21.1315 94.4008 17.9202 94.5155 18.1209C94.6015 18.3216 95.8631 21.6476 97.2967 25.5184Z" fill="black"/>
<path d="M119.145 28.9591V49.8899H123.303H127.46L127.517 35.6111L127.603 21.3323L137.237 35.5251L146.871 49.7465L150.656 49.8326L154.412 49.9186V28.9591V8.02829H150.398H146.384L146.326 21.705L146.24 35.4104L137.094 21.705L127.947 8.02829H123.532H119.145V28.9591Z" fill="black"/>
<path d="M161.867 28.9591V49.9186L171.558 49.8326C180.561 49.7179 181.364 49.6605 183.371 49.0584C190.769 46.822 195.471 41.6323 197.019 34.0054C197.593 31.2242 197.449 25.1457 196.732 22.5078C194.869 15.5978 190.023 10.7808 182.912 8.83111C180.848 8.25766 179.816 8.20032 171.271 8.08563L161.867 7.97094V28.9591ZM181.45 16.3146C186.353 18.2356 188.934 22.5938 188.934 28.9591C188.934 33.346 187.93 36.3566 185.608 38.8797C183.084 41.6323 180.504 42.4638 174.511 42.5498L170.325 42.5785L170.239 28.9878L170.182 15.4257L174.97 15.5404C179.128 15.6551 180.016 15.7698 181.45 16.3146Z" fill="black"/>
<path d="M202.065 22.2784C202.209 35.7544 202.237 36.6719 202.811 38.7937C204.503 44.9296 208.517 48.7717 214.624 50.0619C217.921 50.75 223.254 50.492 226.208 49.4885C231.283 47.7681 234.437 44.4135 236.014 39.1091C236.472 37.6181 236.53 35.7257 236.616 22.7085L236.73 8.02826H232.429H228.129L228.043 22.135C227.957 32.3424 227.842 36.5572 227.584 37.3314C226.867 39.3958 225.491 41.0875 223.684 42.005C222.136 42.7791 221.706 42.8651 219.384 42.8651C217.233 42.8651 216.545 42.7505 215.427 42.177C213.563 41.2882 212.158 39.5678 211.47 37.3314C210.925 35.611 210.897 34.6362 210.897 21.7623V8.02826H206.424H201.951L202.065 22.2784Z" fill="black"/>
<path d="M243.296 28.9304V49.8899H247.597H251.898V42.1484V34.4068H254.851H257.833L262.621 42.1484L267.438 49.8899H272.284C274.951 49.8899 277.13 49.8325 277.13 49.7752C277.13 49.6892 274.922 46.1912 272.227 41.9477C269.531 37.7328 267.266 34.1201 267.18 33.9481C267.123 33.776 268.041 33.1739 269.216 32.6005C273.058 30.7654 275.409 27.5828 276.04 23.2246C276.9 17.4901 274.348 12.2431 269.56 9.89198C266.292 8.28632 265.775 8.22898 254.134 8.11429L243.296 7.9996V28.9304ZM263.396 15.7698C266.894 16.7447 268.614 20.4147 267.123 23.6547C266.492 25.0596 265.575 25.8911 264.084 26.5506C263.166 26.952 261.847 27.0954 257.432 27.1814L251.898 27.2961V21.3896V15.4831H257.145C260.012 15.4831 262.822 15.6264 263.396 15.7698Z" fill="black"/>
<path d="M282.004 28.9591V49.8899H286.305H290.606V28.9591V8.02827H286.305H282.004V28.9591Z" fill="black"/>
<path d="M297.774 28.9591V49.8899H311.68H325.586V46.1625V42.4351H315.981H306.375V25.2317V8.02827H302.075H297.774V28.9591Z" fill="black"/>
</svg>
