<svg width="23" height="145" viewBox="0 0 23 145" fill="none" xmlns="http://www.w3.org/2000/svg">
<path d="M5.26 126.58L5.26 133.15H22V137.89H5.26V144.43H0.729998L0.729998 126.58H5.26ZM22 105.706V110.476H13.54L13.54 118.966H22V123.706H0.729998V118.966H9.07L9.07 110.476H0.729998V105.706H22ZM22 87.6177V101.118H0.729998V87.6477H5.2V96.3777H9.25V88.4577H13.42V96.3777H17.5V87.6177H22ZM22.45 66.4347C22.45 69.5547 21.43 72.1747 19.39 74.2947C17.33 76.4147 14.67 77.4747 11.41 77.4747C8.17 77.4747 5.51 76.4047 3.43 74.2647C1.33 72.1247 0.279999 69.5347 0.279999 66.4947C0.279999 64.9747 0.509999 63.6047 0.969999 62.3847C1.41 61.1447 2 60.1447 2.74 59.3847C3.48 58.6247 4.24 58.0147 5.02 57.5547C5.8 57.0947 6.61 56.7747 7.45 56.5947L8.86 61.0647C8.44 61.1647 8.03 61.3247 7.63 61.5447C7.21 61.7647 6.79 62.0747 6.37 62.4747C5.93 62.8747 5.58 63.4247 5.32 64.1247C5.04 64.8247 4.9 65.6147 4.9 66.4947C4.9 68.0947 5.47 69.5047 6.61 70.7247C7.73 71.9447 9.33 72.5547 11.41 72.5547C13.33 72.5547 14.86 71.9547 16 70.7547C17.14 69.5547 17.71 68.1147 17.71 66.4347C17.71 64.7947 17.3 63.5247 16.48 62.6247C15.66 61.7247 14.74 61.1347 13.72 60.8547L15.01 56.3247C15.83 56.5247 16.64 56.8547 17.44 57.3147C18.24 57.7547 19.03 58.3647 19.81 59.1447C20.59 59.9047 21.23 60.9247 21.73 62.2047C22.21 63.4647 22.45 64.8747 22.45 66.4347ZM20.35 39.0545C21.77 40.6345 22.48 42.6445 22.48 45.0845C22.48 47.5245 21.77 49.5445 20.35 51.1445C18.91 52.7245 16.9 53.5145 14.32 53.5145H0.729998V48.7745H13.93C15.19 48.7745 16.15 48.4545 16.81 47.8145C17.47 47.1545 17.8 46.2445 17.8 45.0845C17.8 43.9245 17.47 43.0245 16.81 42.3845C16.15 41.7245 15.19 41.3945 13.93 41.3945H0.729998V36.6545H14.32C16.9 36.6545 18.91 37.4545 20.35 39.0545ZM0.729998 32.2115V24.2615C0.729998 22.2015 1.26 20.5815 2.32 19.4015C3.38 18.2215 4.75 17.6315 6.43 17.6315C7.49 17.6315 8.44 17.9315 9.28 18.5315C10.12 19.1115 10.69 19.8515 10.99 20.7515C11.23 19.7115 11.8 18.8215 12.7 18.0815C13.58 17.3415 14.67 16.9715 15.97 16.9715C17.73 16.9715 19.18 17.5915 20.32 18.8315C21.44 20.0515 22 21.6515 22 23.6315V32.2115H0.729998ZM9.25 27.5915V25.0115C9.25 24.1715 9.05 23.5115 8.65 23.0315C8.23 22.5315 7.66 22.2815 6.94 22.2815C6.24 22.2815 5.69 22.5215 5.29 23.0015C4.87 23.4815 4.66 24.1715 4.66 25.0715V27.5915H9.25ZM18.13 27.5915V24.6215C18.13 23.7015 17.91 22.9815 17.47 22.4615C17.01 21.9415 16.4 21.6815 15.64 21.6815C14.9 21.6815 14.3 21.9415 13.84 22.4615C13.38 22.9815 13.15 23.7015 13.15 24.6215V27.5915H18.13ZM22 0.195859V13.6959H0.729998V0.225859H5.2V8.95586H9.25V1.03586H13.42V8.95586H17.5V0.195859H22Z" fill="#333333"/>
</svg>
