<svg width="75" height="183" viewBox="0 0 75 183" fill="none" xmlns="http://www.w3.org/2000/svg">
<rect width="75" height="183" fill="white"/>
<path d="M31.26 143.58V150.15H48V154.89H31.26V161.43H26.73V143.58H31.26ZM48 122.706V127.476H39.54V135.966H48V140.706H26.73V135.966H35.07V127.476H26.73V122.706H48ZM48 104.618V118.118H26.73V104.648H31.2V113.378H35.25V105.458H39.42V113.378H43.5V104.618H48ZM48.45 83.4347C48.45 86.5547 47.43 89.1747 45.39 91.2947C43.33 93.4147 40.67 94.4747 37.41 94.4747C34.17 94.4747 31.51 93.4047 29.43 91.2647C27.33 89.1247 26.28 86.5347 26.28 83.4947C26.28 81.9747 26.51 80.6047 26.97 79.3847C27.41 78.1447 28 77.1447 28.74 76.3847C29.48 75.6247 30.24 75.0147 31.02 74.5547C31.8 74.0947 32.61 73.7747 33.45 73.5947L34.86 78.0647C34.44 78.1647 34.03 78.3247 33.63 78.5447C33.21 78.7647 32.79 79.0747 32.37 79.4747C31.93 79.8747 31.58 80.4247 31.32 81.1247C31.04 81.8247 30.9 82.6147 30.9 83.4947C30.9 85.0947 31.47 86.5047 32.61 87.7247C33.73 88.9447 35.33 89.5547 37.41 89.5547C39.33 89.5547 40.86 88.9547 42 87.7547C43.14 86.5547 43.71 85.1147 43.71 83.4347C43.71 81.7947 43.3 80.5247 42.48 79.6247C41.66 78.7247 40.74 78.1347 39.72 77.8547L41.01 73.3247C41.83 73.5247 42.64 73.8547 43.44 74.3147C44.24 74.7547 45.03 75.3647 45.81 76.1447C46.59 76.9047 47.23 77.9247 47.73 79.2047C48.21 80.4647 48.45 81.8747 48.45 83.4347ZM46.35 56.0545C47.77 57.6345 48.48 59.6445 48.48 62.0845C48.48 64.5245 47.77 66.5445 46.35 68.1445C44.91 69.7245 42.9 70.5145 40.32 70.5145H26.73V65.7745H39.93C41.19 65.7745 42.15 65.4545 42.81 64.8145C43.47 64.1545 43.8 63.2445 43.8 62.0845C43.8 60.9245 43.47 60.0245 42.81 59.3845C42.15 58.7245 41.19 58.3945 39.93 58.3945H26.73V53.6545H40.32C42.9 53.6545 44.91 54.4545 46.35 56.0545ZM26.73 49.2115V41.2615C26.73 39.2015 27.26 37.5815 28.32 36.4015C29.38 35.2215 30.75 34.6315 32.43 34.6315C33.49 34.6315 34.44 34.9315 35.28 35.5315C36.12 36.1115 36.69 36.8515 36.99 37.7515C37.23 36.7115 37.8 35.8215 38.7 35.0815C39.58 34.3415 40.67 33.9715 41.97 33.9715C43.73 33.9715 45.18 34.5915 46.32 35.8315C47.44 37.0515 48 38.6515 48 40.6315V49.2115H26.73ZM35.25 44.5915V42.0115C35.25 41.1715 35.05 40.5115 34.65 40.0315C34.23 39.5315 33.66 39.2815 32.94 39.2815C32.24 39.2815 31.69 39.5215 31.29 40.0015C30.87 40.4815 30.66 41.1715 30.66 42.0715V44.5915H35.25ZM44.13 44.5915V41.6215C44.13 40.7015 43.91 39.9815 43.47 39.4615C43.01 38.9415 42.4 38.6815 41.64 38.6815C40.9 38.6815 40.3 38.9415 39.84 39.4615C39.38 39.9815 39.15 40.7015 39.15 41.6215V44.5915H44.13ZM48 17.1959V30.6959H26.73V17.2259H31.2V25.9559H35.25V18.0359H39.42V25.9559H43.5V17.1959H48Z" fill="#333333"/>
</svg>
