<svg width="40" height="40" viewBox="0 0 40 40" fill="none" xmlns="http://www.w3.org/2000/svg">
<path d="M1.24997 12.4999H38.7499C39.44 12.4999 39.9999 11.9399 39.9999 11.25C39.9999 10.5599 39.4398 10 38.7499 10H1.24997C0.55994 10 0 10.56 0 11.25C0 11.9399 0.560044 12.4999 1.24997 12.4999Z" fill="#333333"/>
<path d="M38.7499 18.75H1.24997C0.55994 18.75 0 19.31 0 20C0 20.6899 0.560044 21.2499 1.24997 21.2499H38.7499C39.44 21.2499 39.9999 20.6899 39.9999 20C39.9999 19.31 39.44 18.75 38.7499 18.75Z" fill="#333333"/>
<path d="M38.7499 27.5H13.75C13.0599 27.5 12.5 28.06 12.5 28.75C12.5 29.44 13.06 29.9999 13.75 29.9999H38.7499C39.44 29.9999 39.9999 29.4399 39.9999 28.75C40 28.0599 39.44 27.5 38.7499 27.5Z" fill="#333333"/>
</svg>
